<svg width="492" height="358" viewBox="0 0 492 358" fill="none" xmlns="http://www.w3.org/2000/svg">
<g clip-path="url(#clip0_76_2)">
<path d="M286.589 63.1112C295.81 63.1112 303.285 55.6326 303.285 46.4074C303.285 37.1821 295.81 29.7036 286.589 29.7036C277.368 29.7036 269.893 37.1821 269.893 46.4074C269.893 55.6326 277.368 63.1112 286.589 63.1112Z" fill="#F2F2F2"/>
<path d="M416.105 311.014C440.922 292.104 452.775 260.326 445.355 230.011C445.17 229.258 444.976 228.507 444.771 227.757C439.851 209.763 427.68 192.661 409.942 186.911C395.047 182.083 378.789 185.796 363.251 183.876C332.748 180.107 309.099 155.415 292.46 129.563C275.82 103.71 263.032 74.7711 240.921 53.4129C204.476 18.2075 145.024 10.6277 99.8365 33.5438C54.6492 56.46 25.8654 107.301 27.093 157.971C28.3206 208.641 58.387 257.085 102.051 282.787C118.091 292.229 136.644 298.918 155.107 296.578C171.127 294.547 185.683 285.935 201.628 283.378C226.697 279.358 251.607 290.698 273.29 303.912C294.972 317.127 315.916 332.79 340.556 338.916C364.481 344.864 394.122 327.767 416.105 311.014Z" fill="#FFFFFE"/>
<path d="M380.45 34.6078C379.906 34.2449 379.356 33.9008 378.812 33.5505C363.086 23.4883 346.231 15.3139 328.594 9.1962L324.504 65.6371H298.579V0.957155C296.947 0.619336 295.303 0.300284 293.658 0V65.6371H262.85C245.889 65.6371 229.623 58.8965 217.63 46.8981C205.637 34.8996 198.9 18.6262 198.9 1.65789V1.65783C197.249 2.01442 195.611 2.39603 193.973 2.80267V65.6372H168.879L164.984 11.8174C146.859 18.7717 129.652 27.9169 113.746 39.0495C113.471 39.2372 113.196 39.4311 112.927 39.6188C111.545 40.5884 110.182 41.5769 108.825 42.5778V257.9H182.78L181.473 239.789L174.282 140.352H319.095L311.905 239.789L310.598 257.9H383.733V36.7848C382.645 36.0467 381.551 35.321 380.45 34.6078ZM193.973 123.93H173.094L169.236 70.5668H193.973V123.93ZM293.658 123.93H258.591V122.873C258.591 122.364 258.491 121.861 258.297 121.392C258.102 120.922 257.817 120.496 257.457 120.137C257.098 119.777 256.671 119.493 256.201 119.299C255.732 119.105 255.229 119.006 254.721 119.006H239.476C238.968 119.006 238.466 119.106 237.997 119.3C237.528 119.495 237.102 119.779 236.743 120.138C236.384 120.497 236.099 120.924 235.905 121.393C235.711 121.862 235.611 122.365 235.611 122.873V123.93H198.9V70.5668H293.658V123.93ZM298.579 123.93V70.5668H324.148L320.29 123.93H298.579Z" fill="#3F3D56"/>
<path d="M0 271.689C5.43216 278.129 11.3076 284.18 17.5835 289.8L474.417 290.425C480.692 284.806 486.568 278.754 492 272.315L0 271.689Z" fill="#3F3D56"/>
<path d="M309.793 213.697V267.313C309.794 267.996 310.066 268.651 310.548 269.134C311.031 269.617 311.686 269.889 312.369 269.889H391.785C392.468 269.889 393.123 269.617 393.606 269.134C394.089 268.651 394.36 267.996 394.361 267.313V213.697C394.359 213.014 394.087 212.36 393.605 211.877C393.122 211.395 392.468 211.124 391.785 211.123H312.369C311.687 211.124 311.033 211.395 310.55 211.878C310.067 212.36 309.795 213.014 309.793 213.697Z" fill="#3F3D56"/>
<path d="M311.656 214.364V266.651C311.657 267.016 311.802 267.366 312.06 267.624C312.318 267.882 312.668 268.028 313.033 268.028H391.124C391.489 268.028 391.839 267.882 392.097 267.624C392.355 267.366 392.5 267.016 392.5 266.651V214.364C392.5 213.998 392.355 213.648 392.097 213.389C391.839 213.13 391.489 212.985 391.124 212.984H313.033C312.667 212.985 312.317 213.13 312.059 213.389C311.801 213.648 311.656 213.998 311.656 214.364Z" fill="#7F5AF0"/>
<path d="M308.132 277.769C308.278 277.952 308.463 278.099 308.673 278.199C308.883 278.3 309.114 278.352 309.347 278.351H394.383C394.616 278.35 394.845 278.298 395.055 278.198C395.265 278.098 395.45 277.952 395.597 277.771C395.743 277.591 395.848 277.38 395.902 277.154C395.957 276.927 395.961 276.692 395.913 276.464L394.593 270.191C394.538 269.935 394.42 269.697 394.25 269.499C394.08 269.3 393.863 269.147 393.619 269.054C393.442 268.985 393.253 268.949 393.063 268.949H310.662C310.472 268.949 310.284 268.985 310.107 269.054C309.863 269.147 309.645 269.3 309.475 269.499C309.305 269.697 309.187 269.935 309.133 270.191L307.813 276.464C307.766 276.692 307.77 276.927 307.825 277.153C307.88 277.378 307.985 277.589 308.132 277.769Z" fill="#2F2E41"/>
<path d="M390.146 271.651H392.154C392.323 271.651 392.459 271.514 392.459 271.346V270.384C392.459 270.216 392.323 270.079 392.154 270.079H390.146C389.977 270.079 389.84 270.216 389.84 270.384V271.346C389.84 271.514 389.977 271.651 390.146 271.651Z" fill="#3F3D56"/>
<path d="M384.908 271.651H386.916C387.085 271.651 387.222 271.514 387.222 271.346V270.384C387.222 270.216 387.085 270.079 386.916 270.079H384.908C384.739 270.079 384.603 270.216 384.603 270.384V271.346C384.603 271.514 384.739 271.651 384.908 271.651Z" fill="#3F3D56"/>
<path d="M379.67 271.651H381.678C381.847 271.651 381.983 271.514 381.983 271.346V270.384C381.983 270.216 381.847 270.079 381.678 270.079H379.67C379.501 270.079 379.364 270.216 379.364 270.384V271.346C379.364 271.514 379.501 271.651 379.67 271.651Z" fill="#3F3D56"/>
<path d="M374.431 271.651H376.44C376.608 271.651 376.745 271.514 376.745 271.346V270.384C376.745 270.216 376.608 270.079 376.44 270.079H374.431C374.263 270.079 374.126 270.216 374.126 270.384V271.346C374.126 271.514 374.263 271.651 374.431 271.651Z" fill="#3F3D56"/>
<path d="M369.193 271.651H371.202C371.37 271.651 371.507 271.514 371.507 271.346V270.384C371.507 270.216 371.37 270.079 371.202 270.079H369.193C369.024 270.079 368.888 270.216 368.888 270.384V271.346C368.888 271.514 369.024 271.651 369.193 271.651Z" fill="#3F3D56"/>
<path d="M363.955 271.651H365.964C366.132 271.651 366.269 271.514 366.269 271.346V270.384C366.269 270.216 366.132 270.079 365.964 270.079H363.955C363.787 270.079 363.65 270.216 363.65 270.384V271.346C363.65 271.514 363.787 271.651 363.955 271.651Z" fill="#3F3D56"/>
<path d="M358.717 271.651H360.726C360.894 271.651 361.031 271.514 361.031 271.346V270.384C361.031 270.216 360.894 270.079 360.726 270.079H358.717C358.548 270.079 358.412 270.216 358.412 270.384V271.346C358.412 271.514 358.548 271.651 358.717 271.651Z" fill="#3F3D56"/>
<path d="M353.479 271.651H355.487C355.656 271.651 355.792 271.514 355.792 271.346V270.384C355.792 270.216 355.656 270.079 355.487 270.079H353.479C353.31 270.079 353.173 270.216 353.173 270.384V271.346C353.173 271.514 353.31 271.651 353.479 271.651Z" fill="#3F3D56"/>
<path d="M348.241 271.651H350.249C350.418 271.651 350.555 271.514 350.555 271.346V270.384C350.555 270.216 350.418 270.079 350.249 270.079H348.241C348.072 270.079 347.936 270.216 347.936 270.384V271.346C347.936 271.514 348.072 271.651 348.241 271.651Z" fill="#3F3D56"/>
<path d="M343.003 271.651H345.011C345.18 271.651 345.316 271.514 345.316 271.346V270.384C345.316 270.216 345.18 270.079 345.011 270.079H343.003C342.834 270.079 342.697 270.216 342.697 270.384V271.346C342.697 271.514 342.834 271.651 343.003 271.651Z" fill="#3F3D56"/>
<path d="M337.764 271.651H339.773C339.941 271.651 340.078 271.514 340.078 271.346V270.384C340.078 270.216 339.941 270.079 339.773 270.079H337.764C337.596 270.079 337.459 270.216 337.459 270.384V271.346C337.459 271.514 337.596 271.651 337.764 271.651Z" fill="#3F3D56"/>
<path d="M332.526 271.651H334.535C334.703 271.651 334.84 271.514 334.84 271.346V270.384C334.84 270.216 334.703 270.079 334.535 270.079H332.526C332.357 270.079 332.221 270.216 332.221 270.384V271.346C332.221 271.514 332.357 271.651 332.526 271.651Z" fill="#3F3D56"/>
<path d="M327.288 271.651H329.297C329.465 271.651 329.602 271.514 329.602 271.346V270.384C329.602 270.216 329.465 270.079 329.297 270.079H327.288C327.12 270.079 326.983 270.216 326.983 270.384V271.346C326.983 271.514 327.12 271.651 327.288 271.651Z" fill="#3F3D56"/>
<path d="M322.05 271.651H324.058C324.227 271.651 324.364 271.514 324.364 271.346V270.384C324.364 270.216 324.227 270.079 324.058 270.079H322.05C321.881 270.079 321.745 270.216 321.745 270.384V271.346C321.745 271.514 321.881 271.651 322.05 271.651Z" fill="#3F3D56"/>
<path d="M316.812 271.651H318.82C318.989 271.651 319.125 271.514 319.125 271.346V270.384C319.125 270.216 318.989 270.079 318.82 270.079H316.812C316.643 270.079 316.506 270.216 316.506 270.384V271.346C316.506 271.514 316.643 271.651 316.812 271.651Z" fill="#3F3D56"/>
<path d="M311.574 271.651H313.582C313.751 271.651 313.888 271.514 313.888 271.346V270.384C313.888 270.216 313.751 270.079 313.582 270.079H311.574C311.405 270.079 311.269 270.216 311.269 270.384V271.346C311.269 271.514 311.405 271.651 311.574 271.651Z" fill="#3F3D56"/>
<path d="M390.208 274.271H392.216C392.385 274.271 392.521 274.135 392.521 273.966V273.005C392.521 272.836 392.385 272.699 392.216 272.699H390.208C390.039 272.699 389.902 272.836 389.902 273.005V273.966C389.902 274.135 390.039 274.271 390.208 274.271Z" fill="#3F3D56"/>
<path d="M384.969 274.271H386.978C387.147 274.271 387.283 274.135 387.283 273.966V273.005C387.283 272.836 387.147 272.699 386.978 272.699H384.969C384.801 272.699 384.664 272.836 384.664 273.005V273.966C384.664 274.135 384.801 274.271 384.969 274.271Z" fill="#3F3D56"/>
<path d="M379.732 274.271H381.74C381.909 274.271 382.045 274.135 382.045 273.966V273.005C382.045 272.836 381.909 272.699 381.74 272.699H379.732C379.563 272.699 379.426 272.836 379.426 273.005V273.966C379.426 274.135 379.563 274.271 379.732 274.271Z" fill="#3F3D56"/>
<path d="M374.493 274.271H376.502C376.67 274.271 376.807 274.135 376.807 273.966V273.005C376.807 272.836 376.67 272.699 376.502 272.699H374.493C374.325 272.699 374.188 272.836 374.188 273.005V273.966C374.188 274.135 374.325 274.271 374.493 274.271Z" fill="#3F3D56"/>
<path d="M369.255 274.271H371.264C371.432 274.271 371.569 274.135 371.569 273.966V273.005C371.569 272.836 371.432 272.699 371.264 272.699H369.255C369.086 272.699 368.95 272.836 368.95 273.005V273.966C368.95 274.135 369.086 274.271 369.255 274.271Z" fill="#3F3D56"/>
<path d="M364.017 274.271H366.025C366.194 274.271 366.331 274.135 366.331 273.966V273.005C366.331 272.836 366.194 272.699 366.025 272.699H364.017C363.848 272.699 363.712 272.836 363.712 273.005V273.966C363.712 274.135 363.848 274.271 364.017 274.271Z" fill="#3F3D56"/>
<path d="M358.779 274.271H360.787C360.956 274.271 361.093 274.135 361.093 273.966V273.005C361.093 272.836 360.956 272.699 360.787 272.699H358.779C358.61 272.699 358.474 272.836 358.474 273.005V273.966C358.474 274.135 358.61 274.271 358.779 274.271Z" fill="#3F3D56"/>
<path d="M353.541 274.271H355.549C355.718 274.271 355.854 274.135 355.854 273.966V273.005C355.854 272.836 355.718 272.699 355.549 272.699H353.541C353.372 272.699 353.235 272.836 353.235 273.005V273.966C353.235 274.135 353.372 274.271 353.541 274.271Z" fill="#3F3D56"/>
<path d="M348.302 274.271H350.311C350.48 274.271 350.616 274.135 350.616 273.966V273.005C350.616 272.836 350.48 272.699 350.311 272.699H348.302C348.134 272.699 347.997 272.836 347.997 273.005V273.966C347.997 274.135 348.134 274.271 348.302 274.271Z" fill="#3F3D56"/>
<path d="M343.065 274.271H345.073C345.242 274.271 345.378 274.135 345.378 273.966V273.005C345.378 272.836 345.242 272.699 345.073 272.699H343.065C342.896 272.699 342.759 272.836 342.759 273.005V273.966C342.759 274.135 342.896 274.271 343.065 274.271Z" fill="#3F3D56"/>
<path d="M337.826 274.271H339.835C340.003 274.271 340.14 274.135 340.14 273.966V273.005C340.14 272.836 340.003 272.699 339.835 272.699H337.826C337.658 272.699 337.521 272.836 337.521 273.005V273.966C337.521 274.135 337.658 274.271 337.826 274.271Z" fill="#3F3D56"/>
<path d="M332.588 274.271H334.597C334.765 274.271 334.902 274.135 334.902 273.966V273.005C334.902 272.836 334.765 272.699 334.597 272.699H332.588C332.419 272.699 332.283 272.836 332.283 273.005V273.966C332.283 274.135 332.419 274.271 332.588 274.271Z" fill="#3F3D56"/>
<path d="M327.35 274.271H329.359C329.527 274.271 329.664 274.135 329.664 273.966V273.005C329.664 272.836 329.527 272.699 329.359 272.699H327.35C327.182 272.699 327.045 272.836 327.045 273.005V273.966C327.045 274.135 327.182 274.271 327.35 274.271Z" fill="#3F3D56"/>
<path d="M322.112 274.271H324.12C324.289 274.271 324.426 274.135 324.426 273.966V273.005C324.426 272.836 324.289 272.699 324.12 272.699H322.112C321.943 272.699 321.807 272.836 321.807 273.005V273.966C321.807 274.135 321.943 274.271 322.112 274.271Z" fill="#3F3D56"/>
<path d="M316.874 274.271H318.882C319.051 274.271 319.188 274.135 319.188 273.966V273.005C319.188 272.836 319.051 272.699 318.882 272.699H316.874C316.705 272.699 316.568 272.836 316.568 273.005V273.966C316.568 274.135 316.705 274.271 316.874 274.271Z" fill="#3F3D56"/>
<path d="M311.635 274.271H313.644C313.813 274.271 313.949 274.135 313.949 273.966V273.005C313.949 272.836 313.813 272.699 313.644 272.699H311.635C311.467 272.699 311.33 272.836 311.33 273.005V273.966C311.33 274.135 311.467 274.271 311.635 274.271Z" fill="#3F3D56"/>
<path d="M346.731 277.416H367.073C367.242 277.416 367.378 277.279 367.378 277.11V276.149C367.378 275.98 367.242 275.844 367.073 275.844H346.731C346.563 275.844 346.426 275.98 346.426 276.149V277.11C346.426 277.279 346.563 277.416 346.731 277.416Z" fill="#3F3D56"/>
<path d="M325.179 224.423H323.401C322.862 224.423 322.425 224.86 322.425 225.4C322.425 225.939 322.862 226.376 323.401 226.376H325.179C325.718 226.376 326.155 225.939 326.155 225.4C326.155 224.86 325.718 224.423 325.179 224.423Z" fill="white"/>
<path d="M345.516 224.423H343.738C343.199 224.423 342.762 224.86 342.762 225.4C342.762 225.939 343.199 226.376 343.738 226.376H345.516C346.055 226.376 346.492 225.939 346.492 225.4C346.492 224.86 346.055 224.423 345.516 224.423Z" fill="white"/>
<path d="M351.278 224.423H349.5C348.961 224.423 348.524 224.86 348.524 225.4C348.524 225.939 348.961 226.376 349.5 226.376H351.278C351.817 226.376 352.254 225.939 352.254 225.4C352.254 224.86 351.817 224.423 351.278 224.423Z" fill="white"/>
<path d="M339.984 224.26H328.933C328.394 224.26 327.957 224.697 327.957 225.237C327.957 225.776 328.394 226.213 328.933 226.213H339.984C340.523 226.213 340.96 225.776 340.96 225.237C340.96 224.697 340.523 224.26 339.984 224.26Z" fill="white"/>
<path d="M367.1 224.26H356.048C355.509 224.26 355.072 224.697 355.072 225.237C355.072 225.776 355.509 226.213 356.048 226.213H367.1C367.639 226.213 368.076 225.776 368.076 225.237C368.076 224.697 367.639 224.26 367.1 224.26Z" fill="white"/>
<path d="M330.602 228.832H328.824C328.285 228.832 327.848 229.269 327.848 229.808C327.848 230.348 328.285 230.785 328.824 230.785H330.602C331.142 230.785 331.579 230.348 331.579 229.808C331.579 229.269 331.142 228.832 330.602 228.832Z" fill="white"/>
<path d="M350.939 228.832H349.161C348.622 228.832 348.185 229.269 348.185 229.808C348.185 230.348 348.622 230.785 349.161 230.785H350.939C351.478 230.785 351.916 230.348 351.916 229.808C351.916 229.269 351.478 228.832 350.939 228.832Z" fill="white"/>
<path d="M356.701 228.832H354.923C354.384 228.832 353.947 229.269 353.947 229.808C353.947 230.348 354.384 230.785 354.923 230.785H356.701C357.24 230.785 357.677 230.348 357.677 229.808C357.677 229.269 357.24 228.832 356.701 228.832Z" fill="white"/>
<path d="M345.408 228.669H334.356C333.817 228.669 333.38 229.106 333.38 229.645C333.38 230.185 333.817 230.622 334.356 230.622H345.408C345.947 230.622 346.384 230.185 346.384 229.645C346.384 229.106 345.947 228.669 345.408 228.669Z" fill="white"/>
<path d="M372.523 228.669H361.472C360.933 228.669 360.496 229.106 360.496 229.645C360.496 230.185 360.933 230.622 361.472 230.622H372.523C373.062 230.622 373.499 230.185 373.499 229.645C373.499 229.106 373.062 228.669 372.523 228.669Z" fill="white"/>
<path d="M336.026 233.24H334.248C333.708 233.24 333.271 233.677 333.271 234.216C333.271 234.756 333.708 235.193 334.248 235.193H336.026C336.565 235.193 337.002 234.756 337.002 234.216C337.002 233.677 336.565 233.24 336.026 233.24Z" fill="white"/>
<path d="M356.362 233.24H354.584C354.045 233.24 353.608 233.677 353.608 234.216C353.608 234.756 354.045 235.193 354.584 235.193H356.362C356.901 235.193 357.338 234.756 357.338 234.216C357.338 233.677 356.901 233.24 356.362 233.24Z" fill="white"/>
<path d="M362.124 233.24H360.346C359.807 233.24 359.37 233.677 359.37 234.216C359.37 234.756 359.807 235.193 360.346 235.193H362.124C362.664 235.193 363.101 234.756 363.101 234.216C363.101 233.677 362.664 233.24 362.124 233.24Z" fill="white"/>
<path d="M350.83 233.077H339.779C339.24 233.077 338.803 233.514 338.803 234.054C338.803 234.593 339.24 235.03 339.779 235.03H350.83C351.37 235.03 351.807 234.593 351.807 234.054C351.807 233.514 351.37 233.077 350.83 233.077Z" fill="white"/>
<path d="M377.946 233.077H366.895C366.356 233.077 365.918 233.514 365.918 234.054C365.918 234.593 366.356 235.03 366.895 235.03H377.946C378.485 235.03 378.922 234.593 378.922 234.054C378.922 233.514 378.485 233.077 377.946 233.077Z" fill="white"/>
<path d="M341.449 237.648H339.671C339.131 237.648 338.694 238.085 338.694 238.625C338.694 239.164 339.131 239.601 339.671 239.601H341.449C341.988 239.601 342.425 239.164 342.425 238.625C342.425 238.085 341.988 237.648 341.449 237.648Z" fill="white"/>
<path d="M361.786 237.648H360.007C359.468 237.648 359.031 238.085 359.031 238.625C359.031 239.164 359.468 239.601 360.007 239.601H361.786C362.325 239.601 362.762 239.164 362.762 238.625C362.762 238.085 362.325 237.648 361.786 237.648Z" fill="white"/>
<path d="M367.547 237.648H365.769C365.23 237.648 364.793 238.085 364.793 238.625C364.793 239.164 365.23 239.601 365.769 239.601H367.547C368.086 239.601 368.523 239.164 368.523 238.625C368.523 238.085 368.086 237.648 367.547 237.648Z" fill="white"/>
<path d="M356.254 237.485H345.202C344.663 237.485 344.226 237.923 344.226 238.462C344.226 239.001 344.663 239.439 345.202 239.439H356.254C356.793 239.439 357.23 239.001 357.23 238.462C357.23 237.923 356.793 237.485 356.254 237.485Z" fill="white"/>
<path d="M345.516 255.177H343.738C343.199 255.177 342.762 255.615 342.762 256.154C342.762 256.693 343.199 257.131 343.738 257.131H345.516C346.055 257.131 346.492 256.693 346.492 256.154C346.492 255.615 346.055 255.177 345.516 255.177Z" fill="white"/>
<path d="M351.278 255.177H349.5C348.961 255.177 348.524 255.615 348.524 256.154C348.524 256.693 348.961 257.131 349.5 257.131H351.278C351.817 257.131 352.254 256.693 352.254 256.154C352.254 255.615 351.817 255.177 351.278 255.177Z" fill="white"/>
<path d="M367.1 255.34H356.048C355.509 255.34 355.072 255.778 355.072 256.317C355.072 256.856 355.509 257.294 356.048 257.294H367.1C367.639 257.294 368.076 256.856 368.076 256.317C368.076 255.778 367.639 255.34 367.1 255.34Z" fill="white"/>
<path d="M325.179 255.177H323.401C322.862 255.177 322.425 255.615 322.425 256.154C322.425 256.693 322.862 257.131 323.401 257.131H325.179C325.718 257.131 326.155 256.693 326.155 256.154C326.155 255.615 325.718 255.177 325.179 255.177Z" fill="white"/>
<path d="M339.984 255.34H328.933C328.394 255.34 327.957 255.778 327.957 256.317C327.957 256.856 328.394 257.294 328.933 257.294H339.984C340.523 257.294 340.96 256.856 340.96 256.317C340.96 255.778 340.523 255.34 339.984 255.34Z" fill="white"/>
<path d="M330.602 250.769H328.824C328.285 250.769 327.848 251.207 327.848 251.746C327.848 252.285 328.285 252.722 328.824 252.722H330.602C331.142 252.722 331.579 252.285 331.579 251.746C331.579 251.207 331.142 250.769 330.602 250.769Z" fill="white"/>
<path d="M350.939 250.769H349.161C348.622 250.769 348.185 251.207 348.185 251.746C348.185 252.285 348.622 252.722 349.161 252.722H350.939C351.478 252.722 351.916 252.285 351.916 251.746C351.916 251.207 351.478 250.769 350.939 250.769Z" fill="white"/>
<path d="M356.701 250.769H354.923C354.384 250.769 353.947 251.207 353.947 251.746C353.947 252.285 354.384 252.722 354.923 252.722H356.701C357.24 252.722 357.677 252.285 357.677 251.746C357.677 251.207 357.24 250.769 356.701 250.769Z" fill="white"/>
<path d="M345.408 250.932H334.356C333.817 250.932 333.38 251.369 333.38 251.909C333.38 252.448 333.817 252.885 334.356 252.885H345.408C345.947 252.885 346.384 252.448 346.384 251.909C346.384 251.369 345.947 250.932 345.408 250.932Z" fill="white"/>
<path d="M336.026 246.361H334.248C333.708 246.361 333.271 246.798 333.271 247.337C333.271 247.877 333.708 248.314 334.248 248.314H336.026C336.565 248.314 337.002 247.877 337.002 247.337C337.002 246.798 336.565 246.361 336.026 246.361Z" fill="white"/>
<path d="M356.362 246.361H354.584C354.045 246.361 353.608 246.798 353.608 247.337C353.608 247.877 354.045 248.314 354.584 248.314H356.362C356.901 248.314 357.338 247.877 357.338 247.337C357.338 246.798 356.901 246.361 356.362 246.361Z" fill="white"/>
<path d="M362.124 246.361H360.346C359.807 246.361 359.37 246.798 359.37 247.337C359.37 247.877 359.807 248.314 360.346 248.314H362.124C362.664 248.314 363.101 247.877 363.101 247.337C363.101 246.798 362.664 246.361 362.124 246.361Z" fill="white"/>
<path d="M350.83 246.524H339.779C339.24 246.524 338.803 246.961 338.803 247.5C338.803 248.04 339.24 248.477 339.779 248.477H350.83C351.37 248.477 351.807 248.04 351.807 247.5C351.807 246.961 351.37 246.524 350.83 246.524Z" fill="white"/>
<path d="M341.449 241.953H339.671C339.131 241.953 338.694 242.39 338.694 242.929C338.694 243.469 339.131 243.906 339.671 243.906H341.449C341.988 243.906 342.425 243.469 342.425 242.929C342.425 242.39 341.988 241.953 341.449 241.953Z" fill="white"/>
<path d="M361.786 241.953H360.007C359.468 241.953 359.031 242.39 359.031 242.929C359.031 243.469 359.468 243.906 360.007 243.906H361.786C362.325 243.906 362.762 243.469 362.762 242.929C362.762 242.39 362.325 241.953 361.786 241.953Z" fill="white"/>
<path d="M367.547 241.953H365.769C365.23 241.953 364.793 242.39 364.793 242.929C364.793 243.469 365.23 243.906 365.769 243.906H367.547C368.086 243.906 368.523 243.469 368.523 242.929C368.523 242.39 368.086 241.953 367.547 241.953Z" fill="white"/>
<path d="M356.254 242.115H345.202C344.663 242.115 344.226 242.552 344.226 243.092C344.226 243.631 344.663 244.068 345.202 244.068H356.254C356.793 244.068 357.23 243.631 357.23 243.092C357.23 242.552 356.793 242.115 356.254 242.115Z" fill="white"/>
<path d="M315.726 306.842L307.378 293.641L333.58 272.744L344.395 260.757C345.8 259.2 347.589 258.039 349.583 257.39C351.577 256.741 353.706 256.627 355.758 257.059C357.81 257.491 359.713 258.455 361.276 259.854C362.839 261.252 364.008 263.036 364.666 265.028C365.64 267.98 365.431 271.196 364.081 273.996C362.731 276.796 360.347 278.962 357.431 280.037L340.33 286.34L315.726 306.842Z" fill="#FFB6B6"/>
<path d="M119.864 211.125V275.286H164.792V211.125C164.793 210.664 164.646 210.214 164.372 209.843C164.099 209.471 163.713 209.197 163.273 209.061C163.065 208.992 162.847 208.958 162.629 208.961H122.034C121.749 208.96 121.468 209.016 121.204 209.124C120.941 209.233 120.702 209.392 120.501 209.593C120.299 209.794 120.139 210.033 120.03 210.296C119.921 210.559 119.865 210.841 119.864 211.125ZM137.398 233.171C137.409 231.906 137.92 230.697 138.818 229.807C139.716 228.917 140.929 228.417 142.194 228.417C143.458 228.417 144.671 228.917 145.569 229.807C146.468 230.697 146.978 231.906 146.99 233.171V240.616C146.983 241.884 146.475 243.098 145.576 243.993C144.678 244.887 143.462 245.39 142.194 245.39C140.926 245.39 139.71 244.887 138.811 243.993C137.912 243.098 137.404 241.884 137.398 240.616V233.171Z" fill="#2F2E41"/>
<path d="M119.727 273.234V279.421C119.728 279.742 119.855 280.049 120.081 280.276C120.307 280.503 120.613 280.632 120.933 280.635H163.723C164.043 280.633 164.35 280.505 164.577 280.277C164.803 280.05 164.93 279.742 164.93 279.421V273.234H119.727Z" fill="#3F3D56"/>
<path d="M49.186 114.459V231.607C49.1872 233.1 49.7805 234.531 50.8357 235.587C51.8908 236.643 53.3216 237.236 54.8138 237.237H228.335C229.827 237.236 231.258 236.643 232.313 235.587C233.368 234.531 233.962 233.1 233.963 231.607V114.459C233.959 112.967 233.365 111.538 232.31 110.484C231.255 109.43 229.826 108.837 228.335 108.835H54.8138C53.3229 108.837 51.8935 109.43 50.8387 110.484C49.7838 111.538 49.1896 112.967 49.186 114.459Z" fill="#3F3D56"/>
<path d="M53.2568 115.916V230.162C53.2582 230.96 53.5755 231.724 54.1393 232.288C54.703 232.852 55.4673 233.17 56.2645 233.171H226.891C227.688 233.17 228.452 232.852 229.016 232.288C229.58 231.724 229.897 230.96 229.898 230.162V115.916C229.898 115.118 229.582 114.352 229.018 113.787C228.454 113.221 227.689 112.903 226.891 112.901H56.2645C55.4663 112.903 54.7013 113.221 54.1375 113.787C53.5736 114.352 53.2569 115.118 53.2568 115.916Z" fill="white"/>
<path d="M84.9224 280.216C85.0961 280.434 85.3168 280.609 85.5681 280.729C85.8194 280.85 86.0946 280.912 86.3731 280.91H187.885C188.162 280.91 188.436 280.848 188.687 280.728C188.937 280.608 189.158 280.434 189.333 280.219C189.508 280.003 189.633 279.751 189.698 279.481C189.763 279.211 189.767 278.93 189.711 278.658L188.135 271.17C188.069 270.864 187.929 270.58 187.726 270.343C187.523 270.106 187.263 269.923 186.972 269.812C186.761 269.729 186.536 269.687 186.309 269.687H87.9426C87.7158 269.687 87.491 269.729 87.2798 269.812C86.9882 269.923 86.7289 270.106 86.5258 270.343C86.3227 270.58 86.182 270.864 86.1167 271.17L84.541 278.658C84.4849 278.93 84.4901 279.21 84.5561 279.48C84.622 279.749 84.7472 280.001 84.9224 280.216Z" fill="#2F2E41"/>
<path d="M221.353 128.639H61.6991C61.5331 128.635 61.3752 128.567 61.2592 128.448C61.1431 128.329 61.0781 128.17 61.0781 128.004C61.0781 127.838 61.1431 127.678 61.2592 127.56C61.3752 127.441 61.5331 127.372 61.6991 127.369H221.353C221.519 127.372 221.677 127.441 221.793 127.56C221.909 127.678 221.974 127.838 221.974 128.004C221.974 128.17 221.909 128.329 221.793 128.448C221.677 128.567 221.519 128.635 221.353 128.639Z" fill="#3F3D56"/>
<path d="M72.567 124.125C74.622 124.125 76.2878 122.422 76.2878 120.32C76.2878 118.218 74.622 116.514 72.567 116.514C70.5121 116.514 68.8462 118.218 68.8462 120.32C68.8462 122.422 70.5121 124.125 72.567 124.125Z" fill="#3F3D56"/>
<path d="M85.421 124.125C87.476 124.125 89.1418 122.422 89.1418 120.32C89.1418 118.218 87.476 116.514 85.421 116.514C83.3661 116.514 81.7002 118.218 81.7002 120.32C81.7002 122.422 83.3661 124.125 85.421 124.125Z" fill="#3F3D56"/>
<path d="M98.2745 124.125C100.329 124.125 101.995 122.422 101.995 120.32C101.995 118.218 100.329 116.514 98.2745 116.514C96.2196 116.514 94.5537 118.218 94.5537 120.32C94.5537 122.422 96.2196 124.125 98.2745 124.125Z" fill="#3F3D56"/>
<path d="M213.614 117.456H204.484C204.304 117.46 204.132 117.534 204.006 117.664C203.88 117.793 203.809 117.966 203.809 118.147C203.809 118.327 203.88 118.501 204.006 118.63C204.132 118.759 204.304 118.834 204.484 118.838H213.614C213.795 118.836 213.968 118.762 214.096 118.632C214.223 118.503 214.295 118.329 214.295 118.147C214.295 117.965 214.223 117.791 214.096 117.661C213.968 117.532 213.795 117.458 213.614 117.456Z" fill="#3F3D56"/>
<path d="M213.613 120.052H204.484C204.303 120.056 204.131 120.13 204.005 120.26C203.879 120.389 203.808 120.562 203.808 120.743C203.808 120.924 203.879 121.097 204.005 121.227C204.131 121.356 204.303 121.43 204.484 121.434H213.613C213.795 121.432 213.969 121.358 214.097 121.229C214.224 121.1 214.296 120.925 214.296 120.743C214.296 120.561 214.224 120.387 214.097 120.257C213.969 120.128 213.795 120.054 213.613 120.052Z" fill="#3F3D56"/>
<path d="M213.614 122.648H204.484C204.304 122.652 204.132 122.727 204.006 122.856C203.88 122.985 203.809 123.159 203.809 123.339C203.809 123.52 203.88 123.693 204.006 123.822C204.132 123.952 204.304 124.026 204.484 124.03H213.614C213.795 124.028 213.968 123.954 214.096 123.825C214.223 123.695 214.295 123.521 214.295 123.339C214.295 123.158 214.223 122.983 214.096 122.854C213.968 122.724 213.795 122.651 213.614 122.648Z" fill="#3F3D56"/>
<path d="M433.707 275.95C433.982 276.752 434.505 277.447 435.2 277.933C435.894 278.42 436.725 278.674 437.573 278.659L454.139 278.233C454.993 278.216 455.819 277.923 456.493 277.398C457.167 276.873 457.653 276.144 457.878 275.319L460.223 250.241C461.054 250.618 461.96 250.804 462.873 250.786C463.666 250.766 464.447 250.59 465.172 250.268C465.897 249.946 466.552 249.484 467.099 248.909C467.645 248.334 468.074 247.656 468.359 246.916C468.644 246.175 468.78 245.385 468.76 244.592C468.74 243.798 468.565 243.017 468.243 242.291C467.921 241.566 467.459 240.911 466.884 240.364C466.309 239.817 465.632 239.389 464.892 239.103C464.152 238.818 463.363 238.681 462.569 238.701C462.205 238.7 461.841 238.738 461.484 238.814C461.096 238.394 460.624 238.06 460.099 237.834C459.574 237.607 459.008 237.493 458.436 237.499L432.955 238.157C432.743 238.165 432.533 238.191 432.326 238.235C431.767 238.339 431.237 238.562 430.772 238.888C430.306 239.215 429.916 239.637 429.627 240.127C429.339 240.617 429.158 241.163 429.098 241.728C429.038 242.294 429.1 242.866 429.279 243.405L433.707 275.95ZM460.703 248.538L462.371 242.562C462.561 241.872 462.566 241.144 462.384 240.451C462.465 240.451 462.537 240.412 462.617 240.412C463.761 240.388 464.868 240.82 465.694 241.611C466.521 242.402 467 243.489 467.027 244.633C467.054 245.777 466.626 246.886 465.837 247.715C465.048 248.544 463.963 249.026 462.82 249.056C462.08 249.079 461.349 248.9 460.703 248.538Z" fill="#2F2E41"/>
<path d="M432.326 238.235C432.869 241.34 438.973 243.524 446.312 243.144C453.06 242.833 458.578 240.462 459.589 237.652C459.215 237.542 458.826 237.49 458.436 237.499L432.955 238.157C432.743 238.165 432.533 238.191 432.326 238.235Z" fill="#3F3D56"/>
<path d="M447.657 262.169C447.69 262.16 447.722 262.146 447.751 262.127L451.348 259.771C451.392 259.743 451.428 259.704 451.452 259.659C451.477 259.613 451.49 259.562 451.49 259.51C451.49 259.458 451.477 259.407 451.452 259.361C451.428 259.315 451.392 259.277 451.349 259.248L447.609 256.798C447.575 256.775 447.537 256.76 447.496 256.752C447.456 256.744 447.414 256.744 447.374 256.753C447.334 256.761 447.295 256.777 447.261 256.8C447.227 256.823 447.198 256.853 447.176 256.887C447.153 256.922 447.138 256.96 447.13 257.001C447.122 257.041 447.123 257.083 447.131 257.123C447.14 257.163 447.156 257.202 447.179 257.236C447.203 257.269 447.232 257.299 447.267 257.321L450.606 259.509L447.409 261.604C447.347 261.644 447.301 261.705 447.28 261.776C447.259 261.847 447.264 261.923 447.294 261.991C447.323 262.059 447.376 262.114 447.443 262.147C447.509 262.179 447.585 262.187 447.657 262.169H447.657Z" fill="#7F5AF0"/>
<path d="M441.975 262.431C442.035 262.416 442.089 262.383 442.131 262.336C442.172 262.29 442.199 262.232 442.208 262.17C442.216 262.109 442.206 262.046 442.178 261.99C442.151 261.934 442.107 261.888 442.053 261.857L438.737 259.955L441.942 257.573C441.975 257.548 442.003 257.518 442.024 257.482C442.045 257.447 442.059 257.408 442.065 257.367C442.071 257.327 442.069 257.285 442.059 257.246C442.049 257.206 442.031 257.168 442.007 257.135C441.982 257.102 441.952 257.075 441.916 257.054C441.881 257.033 441.842 257.019 441.802 257.013C441.761 257.007 441.72 257.009 441.68 257.019C441.64 257.029 441.603 257.046 441.57 257.071L437.981 259.738C437.94 259.769 437.906 259.809 437.884 259.856C437.862 259.903 437.852 259.955 437.856 260.007C437.859 260.059 437.875 260.109 437.902 260.153C437.929 260.197 437.967 260.234 438.012 260.26L441.742 262.399C441.813 262.44 441.896 262.451 441.975 262.431Z" fill="#7F5AF0"/>
<path d="M447.298 264.233C447.329 264.226 447.358 264.214 447.384 264.197C447.419 264.176 447.45 264.148 447.474 264.115C447.498 264.081 447.516 264.044 447.526 264.004C447.535 263.964 447.537 263.923 447.531 263.882C447.525 263.841 447.51 263.802 447.489 263.767L442.389 255.379C442.346 255.308 442.276 255.258 442.196 255.238C442.115 255.219 442.03 255.232 441.96 255.275C441.889 255.318 441.838 255.388 441.818 255.468C441.799 255.549 441.812 255.634 441.855 255.705L446.955 264.093C446.989 264.15 447.042 264.194 447.103 264.22C447.165 264.245 447.234 264.25 447.298 264.233Z" fill="#7F5AF0"/>
<path d="M160.602 163.171H132.97C131.843 163.171 130.929 164.086 130.929 165.213V167.914C130.929 169.042 131.843 169.956 132.97 169.956H160.602C161.73 169.956 162.643 169.042 162.643 167.914V165.213C162.643 164.086 161.73 163.171 160.602 163.171Z" fill="#7F5AF0"/>
<path d="M176.709 176.741H116.863C115.736 176.741 114.822 177.656 114.822 178.783V181.484C114.822 182.612 115.736 183.526 116.863 183.526H176.709C177.836 183.526 178.75 182.612 178.75 181.484V178.783C178.75 177.656 177.836 176.741 176.709 176.741Z" fill="#E6E6E6"/>
<path d="M176.709 190.311H116.863C115.736 190.311 114.822 191.226 114.822 192.353V195.054C114.822 196.182 115.736 197.096 116.863 197.096H176.709C177.836 197.096 178.75 196.182 178.75 195.054V192.353C178.75 191.226 177.836 190.311 176.709 190.311Z" fill="#E6E6E6"/>
<path d="M181.782 235.752L181.918 236.18L181.925 236.194L186.005 248.605L190.699 262.906L199.53 289.783L199.615 293.958V293.972L200.272 327.556L198.453 332.11L200.5 339.574C200.5 339.574 199.558 328.291 194.508 334.771C191.647 338.453 188.302 342.221 185.556 345.754C189.557 347.374 193.623 348.839 197.754 350.15C198.645 350.435 199.544 350.706 200.443 350.978C200.635 351.035 200.828 351.092 201.021 351.149C214.711 355.2 228.865 357.476 243.135 357.922C243.877 357.943 244.605 357.957 245.311 357.971C245.561 357.979 245.803 357.986 246.046 357.986C246.844 357.993 247.636 358 248.435 358C250.047 358 251.652 357.976 253.25 357.929C265.077 357.595 276.834 356.004 288.324 353.183C288.246 348.437 288.032 342.892 287.725 336.969C287.582 334.064 284.38 330.917 284.187 327.877C284.051 325.593 286.926 323.445 286.776 321.125C285.806 306.845 284.594 312.327 283.695 302.215C283.602 301.223 283.516 300.273 283.438 299.367C282.86 292.873 282.461 288.812 282.461 288.812L286.298 264.612L292.326 226.617L291.862 225.853L291.342 225.597L259.549 209.853L257.823 205.429C257.32 204.154 256.447 203.059 255.317 202.284C254.187 201.51 252.851 201.091 251.481 201.083L230.538 200.997C229.451 200.992 228.379 201.246 227.41 201.739C226.441 202.232 225.603 202.949 224.967 203.83L219.296 211.687L181.782 235.752Z" fill="#3F3D56"/>
<path d="M204.359 283.802L199.615 293.958L196.377 300.894L190.806 330.076L188.017 333.037L185.627 322.553L160.616 328.109C159.796 323.548 160.397 328.263 159.89 323.26C160.033 323.117 160.183 322.975 160.332 322.832C160.732 322.461 161.067 322.111 161.06 321.776C160.775 304.52 161.631 275.153 168.778 257.361C169.898 254.456 171.374 251.702 173.172 249.161C173.315 248.969 173.45 248.776 173.586 248.583C176.882 243.966 178.964 239.42 181.918 236.187V236.18C181.936 236.165 181.953 236.148 181.968 236.13C181.978 236.125 181.988 236.117 181.996 236.109L202.283 225.347L203.153 249.811L203.774 267.395L204.359 283.802Z" fill="#3F3D56"/>
<path d="M277.51 286.687L283.435 299.37L285.503 303.788L291.073 332.966L293.853 335.921L296.248 325.439L297.373 325.208L317.67 321.002L323.585 339.799C324.919 337.577 325.444 334.962 325.072 332.396C324.701 329.831 323.455 327.472 321.546 325.72C321.142 325.354 320.805 324.998 320.815 324.661C321.152 304.365 319.911 267.305 308.705 252.051C305.145 247.211 303.01 242.389 299.903 239.021C299.893 239.011 299.893 239.002 299.884 239.002L292.323 226.616L291.861 225.856L291.342 225.596L277.51 286.687Z" fill="#3F3D56"/>
<path d="M241.614 195.034C257.002 195.034 269.477 182.554 269.477 167.159C269.477 151.763 257.002 139.283 241.614 139.283C226.226 139.283 213.752 151.763 213.752 167.159C213.752 182.554 226.226 195.034 241.614 195.034Z" fill="#FFB6B6"/>
<path d="M279.274 147.688C279.058 147.457 278.798 147.272 278.509 147.144C278.22 147.016 277.908 146.948 277.592 146.943L278.011 145.78C278.148 145.413 278.184 145.017 278.118 144.631C278.051 144.246 277.883 143.885 277.631 143.586C277.379 143.287 277.052 143.06 276.684 142.929C276.315 142.798 275.919 142.767 275.535 142.839L274.009 143.133L274.153 142.114C274.208 141.734 274.163 141.346 274.023 140.989C273.883 140.632 273.653 140.317 273.354 140.076C273.056 139.835 272.7 139.675 272.321 139.614C271.943 139.552 271.554 139.59 271.195 139.724C270.868 139.853 270.516 139.907 270.166 139.882C269.815 139.857 269.475 139.754 269.169 139.58C268.862 139.412 268.596 139.178 268.388 138.896C268.181 138.614 268.038 138.29 267.968 137.947L267.437 135.382L267.381 135.245C264.792 130.928 259.815 127.788 253.724 126.636C248.303 125.604 242.744 126.13 237.385 126.624C235.259 126.824 232.858 127.049 230.857 128.276C229.156 129.327 227.718 131.429 228.012 133.549C222.728 131.929 217.063 135.163 214.255 139.242C210.928 144.097 210.384 150.178 210.297 154.932C210.059 166.18 212.379 175.383 217.175 182.289C217.525 182.79 217.613 183.834 218.307 184.185L218.163 183.953C218.939 184.341 219.726 184.967 219.432 185.636C218.588 187.563 224.197 191.823 228.149 193.231C235.359 195.802 244.945 195.583 251.686 194.657L251.923 193.062C254.356 192.73 256.069 192.098 256.55 191.11C257.401 190.384 258.126 189.734 258.758 189.133L258.764 189.127C258.777 189.114 258.801 189.096 258.814 189.083C261.859 186.162 262.566 184.498 262.885 181.964C263.191 179.48 262.647 176.959 262.091 174.688C273.809 176.502 257.476 162.201 268.394 159.436C268.519 159.398 268.646 159.366 268.775 159.342C269.094 159.267 269.413 159.192 269.719 159.105C271.196 158.704 272.61 158.099 273.921 157.309C276.973 155.451 277.98 152.986 279.555 150.209C279.783 149.813 279.878 149.356 279.827 148.902C279.777 148.449 279.583 148.023 279.274 147.688Z" fill="#2F2E41"/>
<path d="M340.159 288.671C340.153 289.766 340.141 291.299 340.09 293.194C340.084 293.457 340.078 293.726 340.072 294.001C339.99 297.486 339.909 300.407 339.778 303.654C339.772 303.879 339.765 304.098 339.753 304.323C339.578 308.853 339.303 314.127 338.827 322.478C337.946 337.905 336.407 324.599 334.863 330.01C334.788 330.279 334.707 330.598 334.632 330.974C334.398 332.336 334.003 333.665 333.456 334.934C332.637 335.422 331.793 335.891 330.961 336.36C328.591 337.68 326.184 338.95 323.758 340.157C322.394 340.833 321.025 341.496 319.649 342.134C319.431 342.234 319.218 342.335 319.005 342.428C311.961 345.688 304.701 348.46 297.276 350.724C295.825 351.162 294.381 351.587 292.918 351.981C291.392 352.407 289.866 352.807 288.322 353.182C276.832 356.004 265.075 357.596 253.249 357.931C251.654 357.981 250.047 357.999 248.434 357.999C247.633 357.999 246.845 357.993 246.045 357.987C245.801 357.987 245.557 357.981 245.314 357.974C244.607 357.956 243.875 357.943 243.137 357.924C228.867 357.479 214.714 355.202 201.023 351.149L200.442 350.98C199.541 350.705 198.647 350.436 197.753 350.148C193.626 348.841 189.559 347.377 185.553 345.757C182.496 344.524 179.473 343.202 176.486 341.79C176.459 341.783 176.434 341.77 176.411 341.753C175.786 341.465 175.155 341.165 174.529 340.858C174.448 340.814 174.36 340.771 174.273 340.727C171.941 339.588 169.633 338.395 167.351 337.148C165.431 332.738 162.73 331.893 161.054 328.015C160.566 326.862 160.214 325.657 160.004 324.424C160.004 324.411 159.997 324.399 159.997 324.38C160.172 326.707 159.253 320.251 159.991 324.355C159.985 324.28 159.979 324.199 159.972 324.105C159.954 323.88 159.929 323.604 159.891 323.26C157.746 302.309 157.884 278.349 156.952 258.605C156.89 257.329 156.825 256.107 156.758 254.939C156.74 254.551 156.714 254.17 156.689 253.794C156.733 253.682 156.783 253.563 156.84 253.45C156.851 253.418 156.866 253.387 156.883 253.357C156.902 253.318 156.923 253.28 156.946 253.244C156.958 253.225 156.977 253.2 156.99 253.181C156.999 253.16 157.009 253.139 157.021 253.119C157.077 253.031 157.14 252.937 157.208 252.85C157.24 252.812 157.265 252.781 157.296 252.75C157.318 252.718 157.343 252.688 157.371 252.662C157.39 252.632 157.413 252.605 157.44 252.581C157.465 252.556 157.49 252.524 157.521 252.493C157.534 252.474 157.551 252.457 157.571 252.443C157.621 252.386 157.675 252.334 157.734 252.287C157.957 252.081 158.195 251.893 158.447 251.724C158.534 251.667 158.628 251.611 158.715 251.549C159.346 251.171 160.009 250.853 160.698 250.598C160.935 250.51 161.173 250.429 161.429 250.341C161.523 250.316 161.611 250.285 161.704 250.254C161.842 250.21 161.98 250.166 162.123 250.135C162.836 249.922 163.605 249.741 164.437 249.572C164.537 249.553 164.643 249.534 164.75 249.509C164.9 249.478 165.056 249.453 165.212 249.428C165.425 249.39 165.644 249.353 165.863 249.315C167.72 249.021 169.827 248.802 172.153 248.658C172.372 248.646 172.591 248.633 172.81 248.621C173.066 248.608 173.322 248.596 173.585 248.583C173.804 248.571 174.029 248.564 174.254 248.558C174.473 248.546 174.698 248.539 174.93 248.533C175.561 248.514 176.211 248.496 176.874 248.483C178.763 248.446 180.751 248.458 182.84 248.502C183.809 248.527 184.797 248.552 185.81 248.596C185.879 248.596 185.941 248.602 186.004 248.602C186.885 248.633 187.773 248.671 188.686 248.721C189.324 248.752 189.968 248.783 190.612 248.821C191.219 248.859 191.831 248.896 192.45 248.94C192.932 248.965 193.413 249.002 193.901 249.034C194.314 249.065 194.727 249.096 195.139 249.121L195.702 249.159C196.008 249.184 196.315 249.203 196.627 249.234C197.315 249.29 198.003 249.346 198.703 249.403C199.398 249.465 200.104 249.528 200.811 249.59C201.517 249.653 202.23 249.722 202.943 249.791C203.018 249.797 203.087 249.803 203.156 249.809C203.806 249.878 204.456 249.941 205.113 250.01C205.263 250.022 205.419 250.035 205.569 250.053C206.195 250.116 206.833 250.19 207.465 250.257C207.659 250.278 207.852 250.298 208.046 250.32C208.541 250.374 209.029 250.42 209.527 250.479C210.184 250.554 210.853 250.623 211.503 250.71C212.01 250.767 212.516 250.823 213.023 250.885C213.817 250.979 214.624 251.079 215.43 251.186C215.737 251.223 216.043 251.261 216.349 251.305C218.651 251.592 220.977 251.911 223.34 252.243C226.923 252.75 230.563 253.3 234.227 253.895C237.897 254.489 241.589 255.117 245.301 255.778C246.239 255.946 247.177 256.115 248.121 256.291C248.546 256.372 248.971 256.453 249.397 256.534C250.122 256.666 250.847 256.804 251.573 256.941C252.298 257.079 253.023 257.216 253.749 257.36C254.612 257.529 255.481 257.698 256.344 257.867C262.028 258.993 267.68 260.194 273.196 261.452C274.102 261.658 275.009 261.871 275.909 262.077C277.71 262.496 279.495 262.922 281.262 263.353C281.75 263.466 282.231 263.585 282.713 263.704C283.913 264.004 285.114 264.304 286.296 264.611L286.502 264.667C287.371 264.88 288.222 265.099 289.072 265.324C291.079 265.85 293.053 266.381 294.994 266.919C296.282 267.276 297.555 267.637 298.814 268.002C300.696 268.546 302.541 269.096 304.336 269.653C304.78 269.791 305.224 269.928 305.661 270.06C306.974 270.466 308.269 270.879 309.526 271.292C310.526 271.618 311.502 271.949 312.465 272.281C313.428 272.612 314.372 272.944 315.297 273.275C315.891 273.488 316.479 273.713 317.067 273.926C317.911 274.239 318.743 274.552 319.556 274.864C319.806 274.958 320.049 275.058 320.293 275.152C320.45 275.221 320.6 275.277 320.75 275.34C321.044 275.459 321.344 275.571 321.632 275.69C321.925 275.803 322.213 275.922 322.501 276.047C322.782 276.159 323.07 276.278 323.345 276.397C323.626 276.51 323.901 276.629 324.177 276.754C324.408 276.847 324.633 276.948 324.852 277.048C325.296 277.242 325.74 277.436 326.171 277.636C326.384 277.736 326.596 277.83 326.809 277.93L327.297 278.155C327.366 278.192 327.434 278.224 327.503 278.255C327.659 278.33 327.822 278.411 327.978 278.487C328.341 278.655 328.697 278.837 329.048 279.006C329.517 279.244 329.973 279.481 330.411 279.713C330.855 279.95 331.286 280.188 331.699 280.42C331.768 280.457 331.83 280.495 331.899 280.532C331.993 280.582 332.087 280.639 332.18 280.689C332.499 280.87 332.806 281.058 333.112 281.239C333.712 281.608 334.281 281.971 334.813 282.334C334.932 282.415 335.044 282.497 335.163 282.572C335.557 282.853 335.932 283.128 336.282 283.41C336.282 283.416 336.282 283.416 336.289 283.416C336.407 283.504 336.52 283.598 336.633 283.685C336.726 283.773 336.826 283.848 336.92 283.935C337.245 284.217 337.545 284.486 337.821 284.761C337.913 284.846 338 284.936 338.083 285.03C338.12 285.06 338.153 285.094 338.183 285.13C338.308 285.255 338.421 285.381 338.527 285.506C338.544 285.523 338.558 285.542 338.571 285.562C338.721 285.737 338.859 285.912 338.99 286.087C339.052 286.175 339.121 286.263 339.177 286.35C339.253 286.457 339.328 286.569 339.39 286.676C339.446 286.763 339.496 286.857 339.546 286.945C339.679 287.17 339.792 287.407 339.884 287.651C339.954 287.818 340.011 287.989 340.053 288.164C340.1 288.331 340.136 288.5 340.159 288.671Z" fill="#2F2E41"/>
<path opacity="0.2" d="M340.159 288.671C340.153 289.766 340.14 291.299 340.09 293.194C340.084 293.457 340.072 293.726 340.065 294.001C340.003 296.66 339.909 299.944 339.778 303.654C339.772 303.879 339.765 304.098 339.753 304.324C339.578 308.853 339.303 314.127 338.827 322.478C337.946 337.905 336.407 324.599 334.863 330.01C330.573 327.37 325.871 324.605 320.844 321.765C319.937 321.252 319.022 320.737 318.099 320.22C308.044 314.608 296.813 308.728 285.089 302.904C284.626 302.672 284.157 302.441 283.694 302.215C256.838 288.934 227.524 276.016 203.775 267.395C199.191 265.731 194.814 264.229 190.7 262.909C182.033 260.138 174.542 258.199 168.776 257.36C162.774 256.485 158.628 256.797 156.952 258.605C156.889 257.329 156.825 256.107 156.758 254.939C156.733 254.551 156.708 254.17 156.683 253.794C156.722 253.691 156.772 253.593 156.82 253.494C156.827 253.48 156.832 253.465 156.839 253.45C156.851 253.418 156.866 253.387 156.883 253.357C156.902 253.318 156.923 253.28 156.946 253.244C156.966 253.2 156.991 253.158 157.021 253.119C157.077 253.031 157.14 252.937 157.208 252.85C157.259 252.784 157.313 252.722 157.371 252.662C157.39 252.632 157.413 252.605 157.44 252.581C157.465 252.556 157.49 252.524 157.521 252.493C157.534 252.474 157.551 252.457 157.571 252.443C157.62 252.386 157.675 252.334 157.734 252.287C157.957 252.081 158.195 251.893 158.446 251.724C158.534 251.667 158.628 251.611 158.715 251.549C159.346 251.171 160.009 250.853 160.698 250.598C160.935 250.51 161.173 250.429 161.429 250.341C161.523 250.316 161.61 250.285 161.704 250.254C161.842 250.21 161.979 250.166 162.123 250.135C162.836 249.922 163.605 249.741 164.437 249.572C164.687 249.522 164.95 249.472 165.212 249.428C165.425 249.39 165.644 249.353 165.863 249.315C167.72 249.021 169.827 248.802 172.153 248.658C172.372 248.646 172.591 248.633 172.81 248.621C173.066 248.608 173.322 248.596 173.585 248.583C173.804 248.571 174.029 248.565 174.254 248.558C174.473 248.546 174.698 248.54 174.929 248.533C175.561 248.514 176.211 248.496 176.874 248.483C178.763 248.452 180.751 248.464 182.839 248.508C183.809 248.527 184.797 248.558 185.81 248.602C185.872 248.602 185.941 248.608 186.004 248.608C186.885 248.633 187.779 248.677 188.686 248.721C189.324 248.752 189.968 248.783 190.612 248.821C191.218 248.859 191.831 248.896 192.45 248.94C192.932 248.965 193.413 249.002 193.901 249.034C194.314 249.065 194.726 249.096 195.139 249.121C195.633 249.159 196.127 249.196 196.627 249.234C197.315 249.29 198.003 249.346 198.703 249.403C199.397 249.465 200.104 249.528 200.811 249.59C201.517 249.653 202.23 249.722 202.943 249.791C203.018 249.797 203.087 249.803 203.156 249.809C203.806 249.878 204.456 249.941 205.113 250.01C208.752 250.379 212.498 250.81 216.349 251.305C218.65 251.599 220.981 251.914 223.34 252.249C226.923 252.756 230.563 253.306 234.227 253.895C237.897 254.489 241.589 255.117 245.301 255.778C246.239 255.947 247.177 256.115 248.121 256.291C249.272 256.503 250.422 256.72 251.573 256.941C252.298 257.079 253.023 257.216 253.749 257.36C254.612 257.529 255.481 257.698 256.344 257.867C262.028 258.993 267.68 260.194 273.196 261.452C274.102 261.658 275.009 261.871 275.909 262.077C277.71 262.496 279.494 262.922 281.262 263.354C281.75 263.472 282.231 263.591 282.713 263.71C283.92 264.01 285.114 264.311 286.296 264.611V264.617C286.364 264.63 286.433 264.649 286.502 264.667C287.365 264.886 288.222 265.105 289.072 265.33C291.079 265.856 293.053 266.386 294.994 266.919C296.282 267.282 297.557 267.639 298.814 268.002C300.696 268.552 302.541 269.103 304.336 269.653C304.78 269.791 305.224 269.929 305.661 270.06C306.974 270.473 308.263 270.884 309.526 271.292C310.526 271.618 311.502 271.949 312.465 272.281C313.428 272.612 314.372 272.944 315.297 273.275C315.897 273.488 316.485 273.707 317.067 273.92C317.917 274.233 318.743 274.545 319.555 274.864C319.806 274.958 320.049 275.058 320.293 275.152C320.75 275.327 321.194 275.509 321.631 275.69C321.925 275.803 322.213 275.922 322.501 276.047C322.782 276.159 323.07 276.278 323.345 276.397C323.626 276.51 323.901 276.629 324.176 276.754C324.408 276.848 324.633 276.948 324.852 277.048C325.296 277.242 325.74 277.436 326.171 277.636C326.384 277.736 326.596 277.83 326.809 277.93L327.297 278.155C327.365 278.193 327.434 278.224 327.503 278.255C328.035 278.505 328.547 278.756 329.048 279.006C329.517 279.244 329.973 279.481 330.411 279.713C330.93 279.988 331.424 280.257 331.899 280.532C331.993 280.582 332.087 280.639 332.18 280.689C332.499 280.87 332.806 281.058 333.112 281.239C333.712 281.608 334.281 281.971 334.813 282.334C335.338 282.697 335.826 283.053 336.282 283.41C336.282 283.416 336.282 283.416 336.289 283.416C336.507 283.591 336.72 283.767 336.92 283.935C337.245 284.217 337.545 284.486 337.821 284.761C337.913 284.846 338 284.936 338.083 285.03C338.12 285.06 338.153 285.094 338.183 285.13C338.315 285.274 338.446 285.418 338.571 285.562C338.721 285.737 338.859 285.912 338.99 286.088C339.052 286.175 339.121 286.263 339.177 286.35C339.253 286.457 339.328 286.569 339.39 286.676C339.446 286.763 339.496 286.857 339.546 286.945C339.679 287.17 339.792 287.407 339.884 287.651C339.952 287.818 340.009 287.99 340.053 288.164C340.1 288.331 340.136 288.5 340.159 288.671Z" fill="black"/>
</g>
<defs>
<clipPath id="clip0_76_2">
<rect width="492" height="358" fill="white"/>
</clipPath>
</defs>
</svg>
