<svg width="461" height="478" viewBox="0 0 461 478" fill="none" xmlns="http://www.w3.org/2000/svg">
<path d="M362 407.423C359.943 409.859 357.831 412.236 355.664 414.554H304V407.423H362Z" fill="white"/>
<path d="M416 248.975C416.06 307.95 396.839 364.655 362.378 407.172C360.3 409.752 358.167 412.269 355.977 414.725C352.641 418.488 349.192 422.106 345.632 425.578C312.326 458.12 270.748 476.407 227.604 477.488C226.166 477.527 224.723 477.546 223.275 477.546C188.867 477.546 145.589 455.75 106.315 425.578C103.066 423.081 99.8457 420.527 96.6543 417.916C95.1625 416.706 93.678 415.479 92.2007 414.236C77.0532 401.551 62.6752 387.62 49.1728 372.547C40.3323 362.708 32.0422 352.195 24.3553 341.075C-5.82166 296.93 -12.4776 257.152 30.5448 248.975C35.6385 248.01 40.5821 246.979 45.3756 245.881C52.3191 244.298 58.9642 242.589 65.311 240.754C73.8601 238.29 81.8921 235.618 89.407 232.738C91.9349 231.773 94.4049 230.788 96.817 229.785C132.478 214.93 156.346 195.559 172.593 174.541C175.349 170.984 177.889 167.383 180.215 163.74C183.772 158.194 187.004 152.365 189.887 146.293C193.865 137.856 197.207 129.018 199.873 119.884L200.02 119.382C212.947 75.1589 209.014 34.1398 223.275 20.411C284.237 -38.2806 360.132 45.3016 395.755 143.867C397.551 148.834 399.24 153.83 400.822 158.857C401.533 161.102 402.218 163.352 402.878 165.606C404.614 171.479 406.189 177.368 407.603 183.272C408.145 185.523 408.662 187.773 409.154 190.02C409.68 192.445 410.185 194.864 410.651 197.283C414.117 214.994 416 232.461 416 248.975Z" fill="#FFFFFE"/>
<path d="M228 477.489C226.562 477.527 225.118 477.546 223.669 477.546C189.248 477.546 145.954 455.86 106.665 425.839C103.414 423.355 100.193 420.814 97 418.215L99.8002 398.116L184.57 384.841L227.115 423.215L228 477.489Z" fill="#2F2E41"/>
<path d="M231.58 117.42H219.42C219.044 117.421 218.682 117.598 218.416 117.915C218.15 118.231 218 118.661 218 119.108V133.567C218 133.788 218.037 134.007 218.109 134.211C218.18 134.416 218.285 134.601 218.417 134.758C218.549 134.914 218.705 135.037 218.877 135.122C219.049 135.206 219.234 135.249 219.42 135.248H231.58C231.955 135.248 232.316 135.072 232.582 134.756C232.848 134.441 232.999 134.013 233 133.567V119.108C232.999 118.661 232.849 118.232 232.583 117.916C232.317 117.6 231.956 117.422 231.58 117.42Z" fill="white"/>
<path d="M231.58 141.191H219.42C219.044 141.191 218.682 141.369 218.416 141.686C218.15 142.002 218 142.431 218 142.879V157.337C218 157.559 218.037 157.778 218.109 157.982C218.18 158.187 218.285 158.372 218.417 158.528C218.549 158.684 218.705 158.808 218.877 158.892C219.049 158.977 219.234 159.02 219.42 159.019H231.58C231.955 159.019 232.316 158.842 232.582 158.527C232.848 158.212 232.999 157.784 233 157.337V142.879C232.999 142.432 232.849 142.003 232.583 141.687C232.317 141.371 231.956 141.192 231.58 141.191Z" fill="#E6E6E6"/>
<path d="M231.58 164.962H219.42C219.044 164.962 218.682 165.152 218.416 165.489C218.15 165.827 218 166.285 218 166.762V182.178C218 182.414 218.036 182.649 218.107 182.867C218.179 183.086 218.283 183.285 218.415 183.452C218.547 183.619 218.704 183.752 218.876 183.842C219.049 183.932 219.234 183.979 219.42 183.978H231.58C231.956 183.978 232.317 183.788 232.584 183.451C232.85 183.113 233 182.655 233 182.178V166.762C232.999 166.285 232.849 165.828 232.583 165.491C232.317 165.153 231.956 164.963 231.58 164.962Z" fill="#E6E6E6"/>
<path d="M232.978 191.31C232.917 190.922 232.745 190.57 232.489 190.316C232.234 190.063 231.912 189.923 231.58 189.921H219.42C219.044 189.921 218.682 190.099 218.416 190.416C218.15 190.732 218 191.161 218 191.609V206.061C218 206.283 218.036 206.502 218.107 206.707C218.179 206.912 218.283 207.099 218.415 207.256C218.547 207.412 218.704 207.537 218.876 207.621C219.049 207.706 219.234 207.749 219.42 207.749H231.58C231.956 207.749 232.317 207.571 232.584 207.254C232.85 206.938 233 206.509 233 206.061V191.609C233.001 191.509 232.994 191.409 232.978 191.31Z" fill="#E6E6E6"/>
<path d="M232.131 213.822C231.956 213.736 231.769 213.691 231.58 213.692H219.42C219.234 213.691 219.049 213.735 218.876 213.819C218.704 213.904 218.547 214.028 218.415 214.185C218.283 214.342 218.179 214.528 218.107 214.733C218.036 214.938 218 215.158 218 215.38V229.832C217.999 230.054 218.035 230.273 218.106 230.479C218.177 230.684 218.282 230.87 218.414 231.027C218.546 231.184 218.703 231.309 218.876 231.393C219.048 231.478 219.233 231.521 219.42 231.52H231.58C231.956 231.519 232.317 231.342 232.584 231.025C232.85 230.708 233 230.279 233 229.832V215.38C232.999 215.047 232.917 214.723 232.762 214.446C232.608 214.169 232.389 213.952 232.131 213.822Z" fill="#E6E6E6"/>
<path d="M256.58 117.42H244.42C244.044 117.421 243.682 117.598 243.416 117.915C243.15 118.231 243 118.661 243 119.108V133.567C243 133.788 243.037 134.007 243.109 134.211C243.18 134.416 243.285 134.601 243.417 134.758C243.549 134.914 243.705 135.037 243.877 135.122C244.05 135.206 244.234 135.249 244.42 135.248H256.58C256.955 135.248 257.316 135.072 257.582 134.756C257.848 134.441 257.999 134.013 258 133.567V119.108C257.999 118.661 257.849 118.232 257.583 117.916C257.317 117.6 256.956 117.422 256.58 117.42Z" fill="#E6E6E6"/>
<path d="M256.58 141.191H244.42C244.044 141.191 243.682 141.369 243.416 141.686C243.15 142.002 243 142.431 243 142.879V157.337C243 157.559 243.037 157.778 243.109 157.982C243.18 158.187 243.285 158.372 243.417 158.528C243.549 158.684 243.705 158.808 243.877 158.892C244.05 158.977 244.234 159.02 244.42 159.019H256.58C256.955 159.019 257.316 158.842 257.582 158.527C257.848 158.212 257.999 157.784 258 157.337V142.879C257.999 142.432 257.849 142.003 257.583 141.687C257.317 141.371 256.956 141.192 256.58 141.191Z" fill="#6C63FF"/>
<path d="M256.58 164.962H244.42C244.044 164.962 243.682 165.152 243.416 165.489C243.15 165.827 243 166.285 243 166.762V182.178C243 182.414 243.036 182.649 243.107 182.867C243.179 183.086 243.283 183.285 243.415 183.452C243.547 183.619 243.704 183.752 243.876 183.842C244.049 183.932 244.234 183.979 244.42 183.978H256.58C256.956 183.978 257.317 183.788 257.584 183.451C257.85 183.113 258 182.655 258 182.178V166.762C257.999 166.285 257.849 165.828 257.583 165.491C257.317 165.153 256.956 164.963 256.58 164.962Z" fill="#6C63FF"/>
<path d="M256.58 189.921H244.42C244.122 189.921 243.832 190.033 243.591 190.24C243.35 190.448 243.17 190.74 243.076 191.077C243.026 191.248 243 191.428 243 191.609V206.061C243 206.283 243.036 206.502 243.107 206.707C243.179 206.912 243.283 207.099 243.415 207.256C243.547 207.412 243.704 207.537 243.876 207.621C244.049 207.706 244.234 207.749 244.42 207.749H256.58C256.956 207.749 257.317 207.571 257.584 207.254C257.85 206.938 258 206.509 258 206.061V191.609C257.999 191.162 257.849 190.733 257.583 190.417C257.317 190.101 256.956 189.922 256.58 189.921Z" fill="#6C63FF"/>
<path d="M256.58 213.692H244.42C244.234 213.691 244.049 213.735 243.876 213.819C243.704 213.904 243.547 214.028 243.415 214.185C243.283 214.342 243.179 214.528 243.107 214.733C243.036 214.938 243 215.158 243 215.38V229.832C243 230.053 243.036 230.273 243.107 230.478C243.179 230.683 243.283 230.869 243.415 231.026C243.547 231.183 243.704 231.307 243.876 231.392C244.049 231.477 244.234 231.52 244.42 231.52H256.58C256.956 231.519 257.317 231.342 257.584 231.025C257.85 230.708 258 230.279 258 229.832V215.38C258 214.932 257.85 214.503 257.584 214.186C257.317 213.87 256.956 213.692 256.58 213.692Z" fill="#E6E6E6"/>
<path d="M282.674 117.42H271.325C270.974 117.421 270.637 117.598 270.388 117.915C270.14 118.231 270 118.661 270 119.108V133.567C270 133.788 270.035 134.007 270.101 134.211C270.168 134.416 270.266 134.601 270.389 134.758C270.512 134.914 270.658 135.037 270.819 135.122C270.98 135.206 271.152 135.249 271.325 135.248H282.674C283.025 135.248 283.362 135.072 283.61 134.756C283.859 134.441 283.999 134.013 284 133.567V119.108C283.999 118.661 283.859 118.232 283.611 117.916C283.362 117.6 283.026 117.422 282.674 117.42Z" fill="#6C63FF"/>
<path d="M282.674 141.191H271.325C270.974 141.191 270.637 141.369 270.388 141.686C270.14 142.002 270 142.431 270 142.879V157.337C270 157.559 270.035 157.778 270.101 157.982C270.168 158.187 270.266 158.372 270.389 158.528C270.512 158.684 270.658 158.808 270.819 158.892C270.98 158.977 271.152 159.02 271.325 159.019H282.674C283.025 159.019 283.362 158.842 283.61 158.527C283.859 158.212 283.999 157.784 284 157.337V142.879C283.999 142.432 283.859 142.003 283.611 141.687C283.362 141.371 283.026 141.192 282.674 141.191Z" fill="#6C63FF"/>
<path d="M282.674 164.962H271.325C270.974 164.962 270.637 165.152 270.388 165.489C270.14 165.827 270 166.285 270 166.762V182.178C270 182.414 270.034 182.649 270.1 182.867C270.167 183.086 270.264 183.285 270.387 183.452C270.511 183.619 270.657 183.752 270.818 183.842C270.979 183.932 271.151 183.979 271.325 183.978H282.674C283.026 183.978 283.363 183.788 283.612 183.451C283.86 183.113 284 182.655 284 182.178V166.762C283.999 166.285 283.859 165.828 283.611 165.491C283.362 165.153 283.026 164.963 282.674 164.962Z" fill="#E6E6E6"/>
<path d="M282.674 189.921H271.325C270.974 189.921 270.637 190.099 270.388 190.416C270.14 190.732 270 191.161 270 191.609V206.061C270 206.283 270.034 206.502 270.1 206.707C270.167 206.912 270.264 207.099 270.387 207.256C270.511 207.412 270.657 207.537 270.818 207.621C270.979 207.706 271.151 207.749 271.325 207.749H282.674C283.026 207.749 283.363 207.571 283.612 207.254C283.86 206.938 284 206.509 284 206.061V191.609C283.999 191.162 283.859 190.733 283.611 190.417C283.362 190.101 283.026 189.922 282.674 189.921Z" fill="#6C63FF"/>
<path d="M282.674 213.692H271.325C271.151 213.691 270.979 213.735 270.818 213.819C270.657 213.904 270.511 214.028 270.387 214.185C270.264 214.342 270.167 214.528 270.1 214.733C270.034 214.938 270 215.158 270 215.38V229.832C270 230.053 270.034 230.273 270.1 230.478C270.167 230.683 270.264 230.869 270.387 231.026C270.511 231.183 270.657 231.307 270.818 231.392C270.979 231.477 271.151 231.52 271.325 231.52H282.674C283.026 231.519 283.363 231.342 283.612 231.025C283.86 230.708 284 230.279 284 229.832V215.38C284 214.932 283.86 214.503 283.612 214.186C283.363 213.87 283.026 213.692 282.674 213.692Z" fill="#6C63FF"/>
<path d="M306.674 117.42H295.326C294.974 117.421 294.637 117.598 294.388 117.915C294.14 118.231 294 118.661 294 119.108V133.567C294 133.788 294.035 134.007 294.101 134.211C294.168 134.416 294.266 134.601 294.389 134.758C294.512 134.914 294.658 135.038 294.819 135.122C294.98 135.206 295.152 135.249 295.326 135.248H306.674C307.025 135.248 307.362 135.072 307.61 134.756C307.859 134.441 307.999 134.013 308 133.567V119.108C307.999 118.661 307.859 118.232 307.611 117.916C307.362 117.6 307.026 117.422 306.674 117.42Z" fill="#6C63FF"/>
<path d="M306.674 141.191H295.326C294.974 141.191 294.637 141.369 294.388 141.686C294.14 142.002 294 142.431 294 142.879V157.337C294 157.559 294.035 157.778 294.101 157.982C294.168 158.187 294.266 158.372 294.389 158.528C294.512 158.684 294.658 158.808 294.819 158.892C294.98 158.977 295.152 159.02 295.326 159.019H306.674C307.025 159.019 307.362 158.842 307.61 158.527C307.859 158.212 307.999 157.784 308 157.337V142.879C307.999 142.432 307.859 142.003 307.611 141.687C307.362 141.371 307.026 141.192 306.674 141.191Z" fill="white"/>
<path d="M306.674 164.962H295.326C294.974 164.962 294.637 165.152 294.388 165.489C294.14 165.827 294 166.285 294 166.762V182.178C294 182.414 294.034 182.649 294.1 182.867C294.167 183.086 294.264 183.285 294.387 183.452C294.511 183.619 294.657 183.752 294.818 183.842C294.979 183.932 295.151 183.979 295.326 183.978H306.674C307.026 183.978 307.363 183.788 307.612 183.451C307.86 183.113 308 182.655 308 182.178V166.762C307.999 166.285 307.859 165.828 307.611 165.491C307.362 165.153 307.026 164.963 306.674 164.962Z" fill="white"/>
<path d="M306.674 189.921H295.326C294.974 189.921 294.637 190.099 294.388 190.416C294.14 190.732 294 191.161 294 191.609V206.061C294 206.283 294.034 206.502 294.1 206.707C294.167 206.912 294.264 207.099 294.387 207.256C294.511 207.412 294.657 207.537 294.818 207.621C294.979 207.706 295.151 207.749 295.326 207.749H306.674C307.026 207.749 307.363 207.571 307.612 207.254C307.86 206.938 308 206.509 308 206.061V191.609C307.999 191.162 307.859 190.733 307.611 190.417C307.362 190.101 307.026 189.922 306.674 189.921Z" fill="#E6E6E6"/>
<path d="M306.674 213.692H295.326C295.151 213.691 294.979 213.735 294.818 213.819C294.657 213.904 294.511 214.028 294.387 214.185C294.264 214.342 294.167 214.528 294.1 214.733C294.034 214.938 294 215.158 294 215.38V229.832C294 230.053 294.034 230.273 294.1 230.478C294.167 230.683 294.264 230.869 294.387 231.026C294.511 231.183 294.657 231.307 294.818 231.392C294.979 231.477 295.151 231.52 295.326 231.52H306.674C307.026 231.519 307.363 231.342 307.612 231.025C307.86 230.708 308 230.279 308 229.832V215.38C308 214.932 307.86 214.503 307.612 214.186C307.363 213.87 307.026 213.692 306.674 213.692Z" fill="#6C63FF"/>
<path d="M333.485 117.42H320.509C320.108 117.422 319.724 117.6 319.442 117.917C319.159 118.233 319 118.662 319 119.108V133.567C319 134.013 319.159 134.44 319.442 134.756C319.725 135.071 320.109 135.248 320.509 135.248H333.485C333.886 135.248 334.27 135.072 334.554 134.756C334.838 134.441 334.999 134.013 335 133.567V119.108C334.999 118.661 334.839 118.232 334.555 117.916C334.271 117.6 333.886 117.422 333.485 117.42Z" fill="white"/>
<path d="M333.485 141.191H320.509C320.108 141.193 319.724 141.371 319.441 141.688C319.159 142.004 319 142.432 319 142.879V157.337C319 157.783 319.159 158.211 319.442 158.526C319.725 158.842 320.109 159.019 320.509 159.019H333.485C333.886 159.019 334.27 158.842 334.554 158.527C334.838 158.212 334.999 157.784 335 157.337V142.879C334.999 142.432 334.839 142.003 334.555 141.687C334.271 141.371 333.886 141.192 333.485 141.191Z" fill="white"/>
<path d="M333.485 164.962H320.509C320.108 164.963 319.724 165.154 319.442 165.491C319.159 165.829 319 166.286 319 166.762V182.178C318.999 182.414 319.038 182.648 319.114 182.866C319.189 183.084 319.3 183.283 319.44 183.45C319.581 183.617 319.747 183.75 319.931 183.841C320.114 183.931 320.311 183.978 320.509 183.978H333.485C333.887 183.978 334.272 183.788 334.556 183.451C334.84 183.113 335 182.655 335 182.178V166.762C334.999 166.285 334.839 165.828 334.555 165.491C334.271 165.153 333.886 164.963 333.485 164.962Z" fill="white"/>
<path d="M333.485 189.921H320.509C320.108 189.923 319.724 190.101 319.442 190.418C319.159 190.734 319 191.162 319 191.609V206.061C318.999 206.282 319.038 206.502 319.114 206.706C319.189 206.911 319.3 207.097 319.44 207.254C319.581 207.41 319.747 207.535 319.931 207.62C320.114 207.705 320.311 207.749 320.509 207.749H333.485C333.887 207.749 334.272 207.571 334.556 207.254C334.84 206.938 335 206.509 335 206.061V191.609C334.999 191.162 334.839 190.733 334.555 190.417C334.271 190.101 333.886 189.922 333.485 189.921Z" fill="#6C63FF"/>
<path d="M333.485 213.692H320.509C320.311 213.692 320.114 213.736 319.931 213.821C319.747 213.906 319.581 214.03 319.44 214.187C319.3 214.344 319.189 214.53 319.114 214.734C319.038 214.939 318.999 215.158 319 215.38V229.832C318.999 230.053 319.038 230.272 319.114 230.477C319.189 230.681 319.3 230.868 319.44 231.024C319.581 231.181 319.747 231.306 319.931 231.391C320.114 231.476 320.311 231.519 320.509 231.52H333.485C333.887 231.519 334.272 231.342 334.556 231.025C334.84 230.708 335 230.279 335 229.832V215.38C335 214.932 334.84 214.503 334.556 214.186C334.272 213.87 333.887 213.692 333.485 213.692Z" fill="#E6E6E6"/>
<path d="M358.58 117.42H346.415C346.039 117.422 345.679 117.6 345.414 117.917C345.149 118.233 345 118.662 345 119.108V133.567C345 134.013 345.149 134.44 345.414 134.756C345.68 135.071 346.04 135.248 346.415 135.248H358.58C358.955 135.248 359.316 135.072 359.582 134.756C359.848 134.441 359.999 134.013 360 133.567V119.108C359.999 118.661 359.849 118.232 359.583 117.916C359.317 117.6 358.956 117.422 358.58 117.42Z" fill="white"/>
<path d="M358.58 141.191H346.415C346.039 141.193 345.679 141.371 345.414 141.688C345.149 142.004 345 142.432 345 142.879V157.337C345 157.783 345.149 158.211 345.414 158.526C345.68 158.842 346.04 159.019 346.415 159.019H358.58C358.955 159.019 359.316 158.842 359.582 158.527C359.848 158.212 359.999 157.784 360 157.337V142.879C359.999 142.432 359.849 142.003 359.583 141.687C359.317 141.371 358.956 141.192 358.58 141.191Z" fill="white"/>
<path d="M358.58 164.962H346.415C346.039 164.963 345.679 165.154 345.414 165.491C345.149 165.829 345 166.286 345 166.762V182.178C344.999 182.414 345.036 182.648 345.107 182.866C345.177 183.084 345.281 183.283 345.413 183.45C345.544 183.617 345.7 183.75 345.872 183.841C346.044 183.931 346.229 183.978 346.415 183.978H358.58C358.956 183.978 359.317 183.788 359.584 183.451C359.85 183.113 360 182.655 360 182.178V166.762C359.999 166.285 359.849 165.828 359.583 165.491C359.317 165.153 358.956 164.963 358.58 164.962Z" fill="#6C63FF"/>
<path d="M358.58 189.921H346.415C346.039 189.923 345.679 190.101 345.414 190.418C345.149 190.734 345 191.162 345 191.609V206.061C344.999 206.282 345.036 206.502 345.107 206.706C345.177 206.911 345.281 207.097 345.413 207.254C345.544 207.41 345.7 207.535 345.872 207.62C346.044 207.705 346.229 207.749 346.415 207.749H358.58C358.956 207.749 359.317 207.571 359.584 207.254C359.85 206.938 360 206.509 360 206.061V191.609C359.999 191.162 359.849 190.733 359.583 190.417C359.317 190.101 358.956 189.922 358.58 189.921Z" fill="#E6E6E6"/>
<path d="M358.58 213.692H346.415C346.229 213.692 346.044 213.736 345.872 213.821C345.7 213.906 345.544 214.03 345.413 214.187C345.281 214.344 345.177 214.53 345.107 214.734C345.036 214.939 344.999 215.158 345 215.38V229.832C344.999 230.053 345.036 230.272 345.107 230.477C345.177 230.681 345.281 230.868 345.413 231.024C345.544 231.181 345.7 231.306 345.872 231.391C346.044 231.476 346.229 231.519 346.415 231.52H358.58C358.956 231.519 359.317 231.342 359.584 231.025C359.85 230.708 360 230.279 360 229.832V215.38C360 214.932 359.85 214.503 359.584 214.186C359.317 213.87 358.956 213.692 358.58 213.692Z" fill="white"/>
<path d="M383.58 117.42H371.415C371.039 117.422 370.679 117.6 370.414 117.917C370.149 118.233 370 118.662 370 119.108V133.567C370 134.013 370.149 134.44 370.414 134.756C370.68 135.071 371.04 135.248 371.415 135.248H383.58C383.955 135.248 384.316 135.072 384.582 134.756C384.848 134.441 384.999 134.013 385 133.567V119.108C384.999 118.661 384.849 118.232 384.583 117.916C384.317 117.6 383.956 117.422 383.58 117.42Z" fill="#6C63FF"/>
<path d="M383.58 141.191H371.415C371.039 141.193 370.679 141.371 370.414 141.688C370.149 142.004 370 142.432 370 142.879V157.337C370 157.783 370.149 158.211 370.414 158.526C370.68 158.842 371.04 159.019 371.415 159.019H383.58C383.955 159.019 384.316 158.842 384.582 158.527C384.848 158.212 384.999 157.784 385 157.337V142.879C384.999 142.432 384.849 142.003 384.583 141.687C384.317 141.371 383.956 141.192 383.58 141.191Z" fill="#6C63FF"/>
<path d="M383.58 164.962H371.415C371.039 164.963 370.679 165.154 370.414 165.491C370.149 165.829 370 166.286 370 166.762V182.178C369.999 182.414 370.036 182.648 370.107 182.866C370.177 183.084 370.281 183.283 370.413 183.45C370.544 183.617 370.7 183.75 370.872 183.841C371.044 183.931 371.229 183.978 371.415 183.978H383.58C383.956 183.978 384.317 183.788 384.584 183.451C384.85 183.113 385 182.655 385 182.178V166.762C384.999 166.285 384.849 165.828 384.583 165.491C384.317 165.153 383.956 164.963 383.58 164.962Z" fill="#E6E6E6"/>
<path d="M383.58 189.921H371.415C371.039 189.923 370.679 190.101 370.414 190.418C370.149 190.734 370 191.162 370 191.609V206.061C369.999 206.282 370.036 206.502 370.107 206.706C370.177 206.911 370.281 207.097 370.413 207.254C370.544 207.41 370.7 207.535 370.872 207.62C371.044 207.705 371.229 207.749 371.415 207.749H383.58C383.956 207.749 384.317 207.571 384.584 207.254C384.85 206.938 385 206.509 385 206.061V191.609C384.999 191.162 384.849 190.733 384.583 190.417C384.317 190.101 383.956 189.922 383.58 189.921Z" fill="white"/>
<path d="M383.58 213.692H371.415C371.229 213.692 371.044 213.736 370.872 213.821C370.7 213.906 370.544 214.03 370.413 214.187C370.281 214.344 370.177 214.53 370.107 214.734C370.036 214.939 369.999 215.158 370 215.38V229.832C369.999 230.053 370.036 230.272 370.107 230.477C370.177 230.681 370.281 230.868 370.413 231.024C370.544 231.181 370.7 231.306 370.872 231.391C371.044 231.476 371.229 231.519 371.415 231.52H383.58C383.956 231.519 384.317 231.342 384.584 231.025C384.85 230.708 385 230.279 385 229.832V215.38C385 214.932 384.85 214.503 384.584 214.186C384.317 213.87 383.956 213.692 383.58 213.692Z" fill="#6C63FF"/>
<path d="M408.674 117.42H397.32C396.97 117.422 396.634 117.6 396.386 117.917C396.139 118.233 396 118.662 396 119.108V133.567C396 134.013 396.139 134.44 396.387 134.756C396.634 135.071 396.97 135.248 397.32 135.248H408.674C409.025 135.248 409.362 135.072 409.61 134.756C409.859 134.441 409.999 134.013 410 133.567V119.108C409.999 118.661 409.859 118.232 409.611 117.916C409.362 117.6 409.026 117.422 408.674 117.42Z" fill="#6C63FF"/>
<path d="M408.674 141.191H397.32C396.97 141.193 396.634 141.371 396.386 141.688C396.139 142.004 396 142.432 396 142.879V157.337C396 157.783 396.139 158.211 396.387 158.526C396.634 158.842 396.97 159.019 397.32 159.019H408.674C409.025 159.019 409.362 158.842 409.61 158.527C409.859 158.212 409.999 157.784 410 157.337V142.879C409.999 142.432 409.859 142.003 409.611 141.687C409.362 141.371 409.026 141.192 408.674 141.191Z" fill="#6C63FF"/>
<path d="M408.674 164.962H397.32C396.97 164.963 396.634 165.154 396.386 165.491C396.139 165.829 396 166.286 396 166.762V182.178C396 182.414 396.033 182.648 396.099 182.866C396.166 183.084 396.263 183.283 396.385 183.45C396.508 183.617 396.654 183.75 396.814 183.841C396.975 183.931 397.147 183.978 397.32 183.978H408.674C409.026 183.978 409.363 183.788 409.612 183.451C409.86 183.113 410 182.655 410 182.178V166.762C409.999 166.285 409.859 165.828 409.611 165.491C409.362 165.153 409.026 164.963 408.674 164.962Z" fill="#E6E6E6"/>
<path d="M408.674 189.921H397.32C396.97 189.923 396.634 190.101 396.386 190.418C396.139 190.734 396 191.162 396 191.609V206.061C396 206.282 396.033 206.502 396.099 206.706C396.166 206.911 396.263 207.097 396.385 207.254C396.508 207.41 396.654 207.535 396.814 207.62C396.975 207.705 397.147 207.749 397.32 207.749H408.674C409.026 207.749 409.363 207.571 409.612 207.254C409.86 206.938 410 206.509 410 206.061V191.609C409.999 191.162 409.859 190.733 409.611 190.417C409.362 190.101 409.026 189.922 408.674 189.921Z" fill="#6C63FF"/>
<path d="M408.674 213.692H397.32C397.147 213.692 396.975 213.736 396.814 213.821C396.654 213.906 396.508 214.03 396.385 214.187C396.263 214.344 396.166 214.53 396.099 214.734C396.033 214.939 396 215.158 396 215.38V229.832C396 230.053 396.033 230.272 396.099 230.477C396.166 230.681 396.263 230.868 396.385 231.024C396.508 231.181 396.654 231.306 396.814 231.391C396.975 231.476 397.147 231.519 397.32 231.52H408.674C409.026 231.519 409.363 231.342 409.612 231.025C409.86 230.708 410 230.279 410 229.832V215.38C410 214.932 409.86 214.503 409.612 214.186C409.363 213.87 409.026 213.692 408.674 213.692Z" fill="#6C63FF"/>
<path d="M434.485 117.42H421.509C421.108 117.422 420.724 117.6 420.442 117.917C420.159 118.233 420 118.662 420 119.108V133.567C420 134.013 420.159 134.44 420.442 134.756C420.725 135.071 421.109 135.248 421.509 135.248H434.485C434.886 135.248 435.27 135.072 435.554 134.756C435.838 134.441 435.999 134.013 436 133.567V119.108C435.999 118.661 435.839 118.232 435.555 117.916C435.271 117.6 434.886 117.422 434.485 117.42Z" fill="#E6E6E6"/>
<path d="M434.485 141.191H421.509C421.108 141.193 420.724 141.371 420.441 141.688C420.159 142.004 420 142.432 420 142.879V157.337C420 157.783 420.159 158.211 420.442 158.526C420.725 158.842 421.109 159.019 421.509 159.019H434.485C434.886 159.019 435.27 158.842 435.554 158.527C435.838 158.212 435.999 157.784 436 157.337V142.879C435.999 142.432 435.839 142.003 435.555 141.687C435.271 141.371 434.887 141.192 434.485 141.191Z" fill="#6C63FF"/>
<path d="M434.485 164.962H421.509C421.108 164.963 420.724 165.154 420.441 165.491C420.159 165.829 420 166.286 420 166.762V182.178C419.999 182.414 420.038 182.648 420.114 182.866C420.189 183.084 420.3 183.283 420.44 183.45C420.581 183.617 420.747 183.75 420.931 183.841C421.114 183.931 421.31 183.978 421.509 183.978H434.485C434.887 183.978 435.272 183.788 435.556 183.451C435.84 183.113 436 182.655 436 182.178V166.762C435.999 166.285 435.839 165.828 435.555 165.491C435.271 165.153 434.887 164.963 434.485 164.962Z" fill="#6C63FF"/>
<path d="M434.485 189.921H421.509C421.108 189.923 420.724 190.101 420.441 190.418C420.159 190.734 420 191.162 420 191.609V206.061C419.999 206.282 420.038 206.502 420.114 206.706C420.189 206.911 420.3 207.097 420.44 207.254C420.581 207.41 420.747 207.535 420.93 207.62C421.114 207.705 421.31 207.749 421.509 207.749H434.485C434.887 207.749 435.272 207.571 435.556 207.254C435.84 206.938 436 206.509 436 206.061V191.609C435.999 191.162 435.839 190.733 435.555 190.417C435.271 190.101 434.887 189.922 434.485 189.921Z" fill="#6C63FF"/>
<path d="M434.485 213.692H421.509C421.31 213.692 421.114 213.736 420.93 213.821C420.747 213.906 420.581 214.03 420.44 214.187C420.3 214.344 420.189 214.53 420.114 214.734C420.038 214.939 419.999 215.158 420 215.38V229.832C419.999 230.053 420.038 230.272 420.114 230.477C420.189 230.681 420.3 230.868 420.44 231.024C420.581 231.181 420.747 231.306 420.93 231.391C421.114 231.476 421.31 231.519 421.509 231.52H434.485C434.887 231.519 435.272 231.342 435.556 231.025C435.84 230.708 436 230.279 436 229.832V215.38C436 214.932 435.84 214.503 435.556 214.186C435.272 213.87 434.887 213.692 434.485 213.692Z" fill="#E6E6E6"/>
<path d="M459.674 117.42H448.321C447.97 117.422 447.634 117.6 447.386 117.917C447.139 118.233 447 118.662 447 119.108V133.567C447 134.013 447.139 134.44 447.387 134.756C447.634 135.071 447.97 135.248 448.321 135.248H459.674C460.025 135.248 460.362 135.072 460.61 134.756C460.859 134.441 460.999 134.013 461 133.567V119.108C460.999 118.661 460.859 118.232 460.611 117.916C460.362 117.6 460.026 117.422 459.674 117.42Z" fill="#E6E6E6"/>
<path d="M459.674 141.191H448.321C447.97 141.193 447.634 141.371 447.386 141.688C447.139 142.004 447 142.432 447 142.879V157.337C447 157.783 447.139 158.211 447.387 158.526C447.634 158.842 447.97 159.019 448.321 159.019H459.674C460.025 159.019 460.362 158.842 460.61 158.527C460.859 158.212 460.999 157.784 461 157.337V142.879C460.999 142.432 460.859 142.003 460.611 141.687C460.362 141.371 460.026 141.192 459.674 141.191Z" fill="#E6E6E6"/>
<path d="M459.674 164.962H448.321C447.97 164.963 447.634 165.154 447.386 165.491C447.139 165.829 447 166.286 447 166.762V182.178C447 182.414 447.033 182.648 447.099 182.866C447.166 183.084 447.263 183.283 447.385 183.45C447.508 183.617 447.654 183.75 447.814 183.841C447.975 183.931 448.147 183.978 448.321 183.978H459.674C460.026 183.978 460.363 183.788 460.612 183.451C460.86 183.113 461 182.655 461 182.178V166.762C460.999 166.285 460.859 165.828 460.611 165.491C460.362 165.153 460.026 164.963 459.674 164.962Z" fill="#6C63FF"/>
<path d="M459.674 189.921H448.321C447.97 189.923 447.634 190.101 447.386 190.418C447.139 190.734 447 191.162 447 191.609V206.061C447 206.282 447.033 206.502 447.099 206.706C447.166 206.911 447.263 207.097 447.385 207.254C447.508 207.41 447.654 207.535 447.814 207.62C447.975 207.705 448.147 207.749 448.321 207.749H459.674C460.026 207.749 460.363 207.571 460.612 207.254C460.86 206.938 461 206.509 461 206.061V191.609C460.999 191.162 460.859 190.733 460.611 190.417C460.362 190.101 460.026 189.922 459.674 189.921Z" fill="#E6E6E6"/>
<path d="M459.674 213.692H448.321C448.147 213.692 447.975 213.736 447.814 213.821C447.654 213.906 447.508 214.03 447.385 214.187C447.263 214.344 447.166 214.53 447.099 214.734C447.033 214.939 447 215.158 447 215.38V229.832C447 230.053 447.033 230.272 447.099 230.477C447.166 230.681 447.263 230.868 447.385 231.024C447.508 231.181 447.654 231.306 447.814 231.391C447.975 231.476 448.147 231.519 448.321 231.52H459.674C460.026 231.519 460.363 231.342 460.612 231.025C460.86 230.708 461 230.279 461 229.832V215.38C461 214.932 460.86 214.503 460.612 214.186C460.363 213.87 460.026 213.692 459.674 213.692Z" fill="#E6E6E6"/>
<path d="M153 159.019C173.435 159.019 190 139.33 190 115.043C190 90.7561 173.435 71.0675 153 71.0675C132.565 71.0675 116 90.7561 116 115.043C116 139.33 132.565 159.019 153 159.019Z" fill="#FFB6B6"/>
<path d="M185.884 83.271C185.884 83.271 195.657 61.447 174.157 59.4629C174.157 59.4629 155.828 40.0401 137.145 55.9121C137.145 55.9121 126.955 55.9121 121.382 69.383C121.382 69.383 113.368 65.8322 111.606 75.335C111.606 75.335 105.742 95.1751 111.606 113.031C117.471 130.887 119.419 132.871 119.419 132.871C119.419 132.871 109.782 95.435 133.239 93.451C156.696 91.4669 182.944 74.343 184.899 96.167C186.854 117.991 189.795 123.368 189.795 123.368C189.795 123.368 208.362 92.1991 185.884 83.271Z" fill="#2F2E41"/>
<path d="M250 223.062L249.88 223.807L248.529 232.179L239.195 290.086L238.642 293.495L237.483 300.705L235.897 310.54L232.381 332.336L231.375 338.582L230.997 340.925L230.866 341.747L229.822 348.212L229.505 350.164L226.956 372.331L224.731 391.649L232.179 400.393L227.738 405.606L224.824 425.206L224.829 425.251H105.876C101.064 421.591 96.321 417.819 91.6474 413.932L92.6262 405.33C92.6262 405.33 95.9947 389.967 94.5783 388.131C93.1676 386.295 90.0724 383.014 90.0724 383.014L93.9714 372.331L94.5128 370.849L93.605 348.745L93.5832 348.212L93.2824 340.925L93.2441 339.988L93.184 338.582L92.0301 310.54L92.0083 310.078L91.6583 301.578L91.3302 293.495L91.188 290.086L89.7827 255.977L88.8312 232.814L88 212.649L91.3412 211.32L127.077 197.062L141.88 174.47L172.688 174.74L187.77 174.875L212.936 202.275L218.661 205.485L218.705 205.51L222.811 207.815L233.223 213.651L244.231 219.827L249.88 222.992L250 223.062Z" fill="#72757E"/>
<path d="M146.292 359.787C144.04 360.79 141.625 361.214 139.215 361.027C136.806 360.841 134.462 360.049 132.347 358.708C130.233 357.367 128.4 355.509 126.978 353.265C125.555 351.021 124.578 348.446 124.115 345.721L66 336.24L86.2023 309.963L138.292 322.995C142.325 322.403 146.406 323.533 149.763 326.171C153.119 328.808 155.518 332.77 156.504 337.305C157.49 341.84 156.995 346.634 155.113 350.777C153.231 354.921 150.092 358.127 146.292 359.787V359.787Z" fill="#FFB6B6"/>
<path d="M121.411 310.916C120.334 309.302 118.809 308.19 117.106 307.775L93.2528 301.913L90.8031 301.313C89.3794 300.962 88.0345 300.259 86.8565 299.251C85.6784 298.243 84.6937 296.953 83.9667 295.464C83.2127 293.901 82.7565 292.162 82.63 290.369C82.5163 288.739 82.6815 287.098 83.1156 285.545L91.3814 256.105L96.7445 237.003C97.3945 234.699 97.7781 232.302 97.8848 229.877C98.1837 223.165 96.4269 216.551 92.9363 211.246C89.8675 206.583 85.6111 203.21 80.796 201.626C75.9809 200.042 70.8624 200.331 66.1968 202.449C66.0604 202.507 65.9185 202.572 65.7821 202.636C62.4361 204.216 59.4467 206.693 57.0501 209.873C54.6535 213.053 52.9154 216.848 51.9731 220.958L46.1462 246.013L34.1268 297.663C32.9236 302.838 32.6805 308.259 33.4142 313.555C34.1479 318.851 35.841 323.898 38.3777 328.349C40.9143 332.8 44.2347 336.551 48.1114 339.344C51.9881 342.138 56.3297 343.908 60.839 344.534L95.195 349.294L111.094 351.499C112.932 351.761 114.786 351.193 116.287 349.911C117.787 348.629 118.824 346.725 119.19 344.58C119.216 344.463 119.236 344.344 119.25 344.225L119.632 341.439L122.868 317.977L122.9 317.739C123.069 316.541 123.023 315.316 122.767 314.141C122.51 312.966 122.048 311.867 121.411 310.916Z" fill="#72757E"/>
<path d="M182.876 360.559C185.213 361.211 187.641 361.239 189.989 360.642C192.336 360.045 194.546 358.837 196.463 357.104C198.38 355.371 199.957 353.154 201.083 350.61C202.209 348.065 202.856 345.256 202.98 342.378L259 322.861L235.922 299.266L186.262 321.417C182.223 321.488 178.345 323.336 175.364 326.61C172.383 329.884 170.506 334.358 170.088 339.182C169.671 344.007 170.742 348.848 173.099 352.788C175.456 356.728 178.934 359.493 182.876 360.559V360.559Z" fill="#FFB6B6"/>
<path d="M286.403 280.027L259.716 206.673C257.533 200.651 253.635 195.747 248.712 192.831C247.191 191.937 245.593 191.241 243.946 190.756C243.691 190.679 243.436 190.607 243.181 190.549C239.689 189.639 236.067 189.719 232.606 190.782C229.442 191.753 226.485 193.51 223.927 195.937C221.37 198.365 219.27 201.409 217.764 204.871C217.747 204.9 217.733 204.93 217.721 204.962C216.038 208.848 215.144 213.152 215.109 217.527C215.074 221.902 215.9 226.226 217.52 230.15L217.851 230.941L236.71 276.176C237.354 277.723 237.717 279.415 237.774 281.141C237.832 282.867 237.584 284.588 237.046 286.192C236.508 287.795 235.692 289.244 234.651 290.445C233.611 291.645 232.37 292.569 231.01 293.156L229.685 293.727L205.864 304.003C204.077 304.765 202.607 306.325 201.763 308.355C200.92 310.386 200.769 312.728 201.342 314.889L201.402 315.116L208.079 340.634C208.112 340.751 208.144 340.868 208.182 340.984C208.241 341.205 208.314 341.419 208.4 341.626C209.109 343.527 210.364 345.063 211.937 345.958C213.51 346.853 215.299 347.048 216.982 346.508L229.837 342.456L232.459 341.626L265.655 331.156C270.023 329.777 274.09 327.288 277.577 323.858C281.065 320.427 283.89 316.138 285.861 311.282C287.831 306.427 288.9 301.12 288.993 295.725C289.087 290.331 288.203 284.976 286.403 280.027L286.403 280.027Z" fill="#72757E"/>
<path d="M24 340.865C31.6796 352.056 39.9619 362.638 48.7941 372.542H293.738C296.098 372.546 298.36 373.669 300.028 375.663C301.696 377.657 302.634 380.361 302.636 383.18L302.989 457.341C318.057 449.069 332.169 438.507 344.973 425.917C348.529 422.427 351.973 418.786 355.308 414.993C357.492 412.52 359.624 409.986 361.703 407.391C377.292 387.988 389.915 365.473 399 340.865H24Z" fill="#3F3D56"/>
<path d="M249.629 165.652C249.369 165.084 248.986 164.609 248.518 164.278C248.05 163.948 247.515 163.773 246.971 163.773H68.0239C67.2216 163.776 66.4529 164.156 65.8861 164.83C65.3193 165.504 65.0007 166.417 65 167.369V294.512H250V167.369C250.003 166.769 249.875 166.177 249.629 165.652Z" fill="#3F3D56"/>
<path d="M65 290.946V306.529C65 307.175 65.1076 307.815 65.3168 308.412C65.5259 309.009 65.8324 309.551 66.2188 310.008C66.6053 310.465 67.064 310.827 67.5689 311.074C68.0738 311.321 68.6149 311.449 69.1614 311.449H137.266V342.202H136.361C136.29 342.202 136.22 342.218 136.154 342.251C136.088 342.283 136.029 342.33 135.979 342.389C135.928 342.448 135.889 342.519 135.861 342.596C135.834 342.674 135.82 342.757 135.82 342.841V344.98C135.82 345.064 135.834 345.147 135.861 345.224C135.889 345.302 135.928 345.372 135.979 345.432C136.029 345.491 136.088 345.538 136.154 345.57C136.22 345.602 136.29 345.619 136.361 345.619H178.639C178.71 345.619 178.78 345.602 178.846 345.57C178.912 345.538 178.971 345.491 179.021 345.432C179.072 345.372 179.111 345.302 179.139 345.224C179.166 345.147 179.18 345.064 179.18 344.98V342.841C179.18 342.757 179.166 342.674 179.139 342.596C179.111 342.519 179.072 342.448 179.021 342.389C178.971 342.33 178.912 342.283 178.846 342.251C178.78 342.218 178.71 342.202 178.639 342.202H177.734V311.449H245.839C246.385 311.449 246.926 311.321 247.431 311.074C247.936 310.827 248.395 310.465 248.781 310.008C249.168 309.551 249.474 309.009 249.683 308.412C249.892 307.815 250 307.175 250 306.529V290.946H65Z" fill="#3F3D56"/>
<path d="M155 245.782C164.389 245.782 172 236.736 172 225.577C172 214.418 164.389 205.372 155 205.372C145.611 205.372 138 214.418 138 225.577C138 236.736 145.611 245.782 155 245.782Z" fill="#7F5AF0"/>
<path d="M198 112.15H195.275C195.275 87.8501 174.89 71.9266 154.325 71.9137C151.334 71.9034 148.35 72.2458 145.416 72.9359C142.114 73.7137 138.687 74.6459 135.319 75.8609C122.04 80.663 109.725 89.9458 109.725 112.15C109.722 116.462 110.187 120.757 111.109 124.93L108.471 125.74C107.493 121.302 106.999 116.735 107 112.15C107 92.7487 113.751 79.4223 125.413 71.4766C131.543 67.298 139.024 64.6045 147.596 63.293C151.163 62.7332 154.769 62.604 158.358 62.9073C182.007 64.913 198 86.3073 198 112.15Z" fill="#7F5AF0"/>
<path d="M202.899 114.309L201.82 105.521C201.554 103.302 200.585 101.258 199.084 99.7509C198.12 98.7686 196.967 98.0408 195.711 97.6225C194.454 97.2043 193.128 97.1065 191.833 97.3367L190.12 97.5962C189.651 97.6642 189.199 97.8343 188.79 98.0964C188.382 98.3585 188.024 98.7075 187.739 99.1232C187.451 99.5375 187.241 100.01 187.119 100.515C186.998 101.019 186.969 101.545 187.033 102.063L189.523 122.306C189.626 123.131 189.961 123.899 190.482 124.503C191.002 125.106 191.682 125.514 192.424 125.668C192.644 125.716 192.867 125.74 193.091 125.74C193.252 125.74 193.413 125.728 193.573 125.704L195.488 125.42C196.656 125.249 197.78 124.817 198.791 124.149C199.802 123.482 200.678 122.594 201.366 121.539C201.514 121.31 201.656 121.075 201.788 120.833C202.813 118.858 203.205 116.559 202.899 114.309Z" fill="#6C63FF"/>
<path d="M188.857 97.2152C188.394 97.4924 187.991 97.9014 187.681 98.4084C187.416 98.835 187.222 99.322 187.11 99.8415C186.998 100.361 186.971 100.902 187.03 101.435L189.326 122.279C189.421 123.128 189.73 123.919 190.21 124.541C190.69 125.162 191.316 125.581 192 125.74L188.857 97.2152Z" fill="white"/>
<path d="M202.87 113.997L201.494 104.584C201.154 102.207 199.917 100.018 198 98.4038L201.165 119.977C201.213 120.324 201.309 120.663 201.452 120.986C202.762 118.871 203.261 116.408 202.87 113.997Z" fill="#3F3D56"/>
<path d="M194.438 120.864C195.179 120.745 195.552 118.648 195.27 116.182C194.989 113.715 194.16 111.813 193.419 111.932C192.677 112.052 192.305 114.148 192.586 116.615C192.868 119.081 193.697 120.984 194.438 120.864Z" fill="#3F3D56"/>
<path d="M192.813 109.275C193.554 109.156 193.926 107.059 193.645 104.593C193.363 102.126 192.534 100.224 191.793 100.343C191.052 100.463 190.679 102.559 190.961 105.026C191.242 107.492 192.071 109.395 192.813 109.275Z" fill="#3F3D56"/>
<path d="M203.105 113.782C203.846 113.663 204.219 111.566 203.937 109.1C203.656 106.633 202.827 104.731 202.086 104.85C201.344 104.97 200.972 107.066 201.253 109.533C201.535 111.999 202.364 113.902 203.105 113.782Z" fill="#3F3D56"/>
<path d="M154.537 71.8863C151.585 71.876 148.639 72.2174 145.744 72.9054C142.484 73.6809 139.101 74.6103 135.778 75.8216C130.588 75.5204 126.769 73.918 126 71.4505C132.051 67.2844 139.435 64.5989 147.895 63.2914C151.415 62.7333 154.974 62.6044 158.517 62.9069C158.892 63.1688 159.216 63.5224 159.468 63.9444C159.72 64.3664 159.895 64.8472 159.98 65.3552C160.233 67.5857 158.097 69.9571 154.537 71.8863Z" fill="#3F3D56"/>
<path d="M119.912 135.638L116.002 114.531C115.862 113.769 115.552 113.078 115.111 112.544C114.67 112.011 114.118 111.658 113.523 111.53C113.355 111.496 113.185 111.479 113.015 111.478C112.775 111.479 112.537 111.516 112.304 111.59L110.79 112.065C108.842 112.676 107.159 114.267 106.113 116.487C105.066 118.708 104.741 121.376 105.208 123.907L106.961 133.376C107.361 135.606 108.314 137.603 109.673 139.061C109.893 139.291 110.124 139.505 110.364 139.7C111.215 140.393 112.165 140.857 113.157 141.066C114.148 141.274 115.162 141.222 116.139 140.913L117.647 140.439C118.046 140.318 118.421 140.091 118.749 139.773C119.237 139.311 119.608 138.671 119.815 137.935C120.022 137.199 120.056 136.399 119.912 135.638Z" fill="#6C63FF"/>
<path d="M111.615 130.833C112.343 130.625 112.535 128.495 112.045 126.075C111.555 123.655 110.568 121.862 109.841 122.069C109.114 122.277 108.922 124.408 109.412 126.828C109.902 129.248 110.888 131.041 111.615 130.833Z" fill="#3F3D56"/>
<path d="M106.198 132.764C106.926 132.556 107.118 130.426 106.628 128.006C106.138 125.586 105.151 123.793 104.424 124.001C103.697 124.209 103.505 126.339 103.995 128.759C104.485 131.179 105.471 132.972 106.198 132.764Z" fill="#3F3D56"/>
<path d="M119.902 134.568L115.811 114.554C115.651 113.773 115.3 113.064 114.8 112.517C114.3 111.97 113.674 111.608 113 111.478L118.584 138.814C119.136 138.339 119.556 137.682 119.79 136.926C120.025 136.171 120.064 135.35 119.902 134.568Z" fill="white"/>
<path d="M105.938 118.978C105.845 118.412 105.672 117.881 105.429 117.42C104.959 119.203 104.873 121.154 105.182 123.011L106.68 132.143C107.023 134.293 107.838 136.219 109 137.625L105.938 118.978Z" fill="#3F3D56"/>
</svg>
